<?xml version="1.0" encoding="UTF-8"?>
<svg xmlns="http://www.w3.org/2000/svg" xmlns:xlink="http://www.w3.org/1999/xlink" width="283.465pt" height="283.464pt" viewBox="0 0 283.465 283.464">
<defs>
<clipPath id="clip-0">
<path clip-rule="nonzero" d="M 0 0 L 283.464844 0 L 283.464844 283.464844 L 0 283.464844 Z M 0 0 "/>
</clipPath>
</defs>
<g clip-path="url(#clip-0)">
<path fill-rule="nonzero" fill="rgb(13.529968%, 31.373596%, 66.369629%)" fill-opacity="1" d="M 137.554688 107.578125 C 137.554688 102.285156 132.925781 100.605469 129.304688 100.605469 C 126.859375 100.605469 125.261719 100.765625 124.144531 100.871094 C 123.984375 104.757812 123.824219 108.328125 123.824219 112.160156 L 123.824219 115.085938 C 124.355469 115.15625 126.847656 115.144531 127.390625 115.136719 C 131.785156 115.042969 137.554688 113.648438 137.554688 107.578125 M 229.339844 88.445312 C 239.230469 100.574219 247.238281 119.761719 248.40625 135.824219 L 248.5625 135.824219 L 256.804688 50.722656 L 261.449219 50.71875 C 261.449219 50.71875 256.179688 105.730469 253.109375 133.070312 C 249.265625 167.308594 244.378906 181.515625 235.039062 196.472656 L 233.609375 189.964844 C 240.886719 177.179688 242.964844 166.019531 243.914062 160.140625 C 246.867188 141.835938 242.640625 116.851562 229.886719 97.351562 C 215.597656 75.503906 190.046875 59.429688 158.6875 59.429688 C 132.925781 59.429688 110.542969 70.753906 94.921875 88.421875 L 91.132812 85.417969 C 107.671875 66.65625 131.707031 54.683594 158.691406 54.683594 C 186.984375 54.683594 212.171875 67.394531 229.339844 88.445312 M 183.566406 135.589844 L 181.824219 135.574219 C 179.695312 132.683594 157.363281 109.390625 155.429688 107.335938 C 155.378906 109.304688 155.375 113.398438 155.375 117.378906 C 155.375 122.667969 155.777344 130.734375 156.007812 135.09375 C 155.46875 134.996094 154.671875 134.898438 153.742188 134.898438 C 152.800781 134.898438 152.03125 134.984375 151.410156 135.09375 C 151.847656 129.46875 151.96875 120.339844 151.96875 111.757812 C 151.96875 105.050781 151.871094 101.375 151.789062 97.996094 L 153.535156 98.007812 C 155.789062 100.460938 177.992188 123.4375 179.925781 125.496094 C 179.980469 123.53125 179.984375 120.054688 179.984375 116.074219 C 179.984375 110.789062 179.582031 102.71875 179.347656 98.359375 C 179.890625 98.457031 180.683594 98.554688 181.617188 98.554688 C 182.558594 98.554688 183.328125 98.46875 183.949219 98.359375 C 183.507812 103.984375 183.386719 113.113281 183.386719 121.699219 C 183.386719 128.398438 183.488281 132.203125 183.566406 135.589844 M 143.289062 134.914062 C 142.800781 134.914062 140.964844 134.933594 139.953125 135.09375 C 137.851562 131.886719 131.113281 121.789062 126.535156 117.078125 C 126.398438 117.078125 123.824219 117.082031 123.824219 117.082031 L 123.824219 121.3125 C 123.824219 125.886719 124.039062 130.515625 124.25 135.09375 C 123.34375 134.933594 121.710938 134.914062 121.375 134.914062 C 121.039062 134.914062 119.402344 134.933594 118.496094 135.09375 C 118.710938 130.515625 118.925781 125.886719 118.925781 121.3125 L 118.925781 112.160156 C 118.925781 107.582031 118.710938 102.953125 118.496094 98.378906 C 120.523438 98.539062 123.082031 98.644531 125.105469 98.644531 C 127.125 98.644531 129.148438 98.378906 131.167969 98.378906 C 137.183594 98.378906 142.691406 100.15625 142.691406 106.851562 C 142.691406 113.933594 135.632812 116.480469 131.589844 117.011719 C 134.195312 120.257812 143.535156 131.632812 146.621094 135.09375 C 145.558594 134.933594 143.773438 134.914062 143.289062 134.914062 M 112.035156 135.089844 L 112.035156 135.09375 C 110.125 134.996094 107.46875 134.917969 104.949219 134.871094 C 103.5 134.847656 102.089844 134.832031 100.976562 134.828125 L 100.507812 134.828125 C 97.261719 134.828125 92.28125 134.933594 89.03125 135.09375 C 89.246094 130.460938 89.460938 125.832031 89.460938 121.257812 L 89.460938 112.105469 C 89.460938 107.527344 89.246094 102.898438 89.03125 98.378906 C 92.226562 98.539062 97.152344 98.644531 100.347656 98.644531 C 103.539062 98.644531 109.496094 98.503906 111.335938 98.378906 C 111.257812 98.875 111.210938 99.46875 111.210938 100.191406 C 111.210938 100.917969 111.28125 101.667969 111.335938 102.03125 C 107.832031 101.765625 101.570312 101.335938 94.65625 101.335938 C 94.601562 103.625 94.492188 113.328125 94.492188 114.660156 C 100.773438 114.660156 104.792969 114.390625 107.933594 114.128906 C 107.828125 114.660156 107.773438 115.617188 107.773438 116.144531 C 107.773438 116.679688 107.828125 117.464844 107.933594 118 C 104.261719 117.625 96.046875 117.519531 94.492188 117.519531 C 94.398438 119.296875 94.480469 130.8125 94.546875 131.785156 C 98.4375 131.726562 108.402344 131.425781 112.035156 131.09375 C 111.976562 131.496094 111.910156 132.328125 111.910156 133.136719 C 111.910156 133.945312 111.957031 134.535156 112.035156 135.089844 M 78.011719 187.992188 C 71.667969 175.09375 68.792969 161.996094 68.414062 149.472656 C 70.023438 149.472656 71.894531 149.539062 73.503906 149.539062 C 74.0625 161.527344 76.78125 176.429688 86.152344 192.628906 C 82.769531 191.382812 80.222656 189.742188 78.011719 187.992188 M 49.84375 116.71875 C 49.84375 105.277344 58.496094 97.667969 70.253906 97.667969 C 74.832031 97.667969 80.070312 99.078125 82.992188 100.332031 C 82.382812 101.683594 81.878906 103.472656 81.667969 104.589844 L 81.347656 104.695312 C 79.085938 102.191406 75.449219 100.023438 70.070312 100.023438 C 63.238281 100.023438 55.378906 105.550781 55.378906 116.582031 C 55.378906 127.316406 63.390625 133.023438 70.546875 133.023438 C 76.984375 133.023438 80.0625 130.023438 82.824219 127.683594 L 83.039062 127.898438 L 82.253906 132.070312 C 80.988281 133.03125 76.589844 135.765625 69.976562 135.765625 C 58.003906 135.765625 49.84375 128.222656 49.84375 116.71875 M 145.132812 32.761719 C 159.109375 36.683594 172.21875 43.871094 182.636719 53.585938 C 179.628906 52.785156 176.566406 52.136719 173.449219 51.648438 C 158.800781 40.070312 139.734375 33.164062 119.808594 33.164062 C 72.738281 33.164062 34.214844 71.550781 34.214844 118.730469 C 34.214844 165.910156 72.597656 204.296875 119.78125 204.296875 C 166.960938 204.296875 205.347656 165.910156 205.347656 118.730469 C 205.347656 100.480469 198.46875 82.246094 189.027344 69.363281 C 191.28125 70.042969 194.03125 71.207031 197.191406 73.074219 C 203.582031 82.761719 209.511719 98.585938 214.589844 122.859375 C 219.917969 148.324219 247.320312 270.285156 250.28125 283.464844 L 283.464844 283.464844 L 283.464844 33.488281 L 145.132812 32.640625 Z M 99.507812 210.789062 C 106.296875 216.667969 117.050781 224.0625 130.347656 228.839844 C 129.234375 230.023438 128.027344 231.308594 126.746094 232.671875 C 113.464844 227.414062 100.472656 219.261719 90.375 208.28125 C 93.21875 209.238281 96.347656 210.101562 99.507812 210.789062 M 0 0 L 0 283.464844 L 84.59375 283.464844 L 168.28125 194.472656 L 168.164062 194.367188 C 154.707031 203.855469 137.632812 209.011719 119.21875 209.011719 C 85.097656 209.011719 55.03125 188.765625 41.988281 163.574219 L 41.855469 163.664062 L 59.609375 223.5625 L 54.804688 223.5625 C 54.804688 223.5625 45.996094 193.210938 38.476562 166.75 C 32.78125 146.722656 29.277344 131.886719 29.320312 118.722656 C 29.476562 73.4375 65.089844 31.910156 112.449219 28.847656 C 113.75 28.761719 117.777344 28.339844 123.777344 28.335938 C 160.257812 28.3125 272.660156 29.175781 283.464844 29.257812 L 283.464844 0 Z M 223.746094 204.054688 L 225.023438 209.859375 C 209.722656 226.386719 186.292969 238.769531 159.023438 238.769531 C 153.183594 238.769531 147.082031 238.207031 140.304688 236.765625 C 141.679688 235.300781 142.996094 233.898438 144.242188 232.578125 C 148.59375 233.351562 153.601562 233.859375 158.746094 233.863281 C 185.273438 233.878906 208.445312 221.941406 223.746094 204.054688 M 209.53125 121.25 C 209.960938 146.25 198.507812 163.21875 194.902344 169.105469 C 191.757812 174.238281 184.246094 184.132812 169.792969 199.480469 C 151.558594 218.847656 94.5625 279.429688 90.761719 283.464844 L 245.320312 283.464844 L 209.6875 121.238281 Z M 209.53125 121.25 "/>
</g>
</svg>
