<?xml version="1.0" encoding="UTF-8"?>
<svg xmlns="http://www.w3.org/2000/svg" xmlns:xlink="http://www.w3.org/1999/xlink" width="283.465pt" height="283.465pt" viewBox="0 0 283.465 283.465">
<path fill-rule="nonzero" fill="rgb(13.729858%, 12.159729%, 12.548828%)" fill-opacity="1" d="M 60.125 118.042969 C 58.71875 119.109375 53.84375 122.144531 46.503906 122.144531 C 33.226562 122.144531 24.179688 113.773438 24.179688 101.015625 C 24.179688 88.332031 33.773438 79.890625 46.816406 79.890625 C 51.890625 79.890625 57.703125 81.453125 60.945312 82.84375 C 60.265625 84.34375 59.707031 86.328125 59.472656 87.566406 L 59.117188 87.683594 C 56.609375 84.90625 52.578125 82.5 46.609375 82.5 C 39.035156 82.5 30.320312 88.632812 30.320312 100.863281 C 30.320312 112.773438 39.199219 119.101562 47.140625 119.101562 C 54.277344 119.101562 57.691406 115.773438 60.757812 113.183594 L 60.992188 113.417969 Z M 60.125 118.042969 "/>
<path fill-rule="nonzero" fill="rgb(13.729858%, 12.159729%, 12.548828%)" fill-opacity="1" d="M 93.011719 119.226562 C 93.011719 118.328125 93.089844 117.40625 93.152344 116.960938 C 89.125 117.328125 78.070312 117.664062 73.757812 117.726562 C 73.683594 116.648438 73.589844 103.878906 73.695312 101.90625 C 75.421875 101.90625 84.53125 102.023438 88.601562 102.4375 C 88.488281 101.847656 88.425781 100.972656 88.425781 100.382812 C 88.425781 99.792969 88.488281 98.734375 88.601562 98.144531 C 85.121094 98.441406 80.660156 98.734375 73.695312 98.734375 C 73.695312 97.257812 73.816406 86.496094 73.875 83.960938 C 81.546875 83.960938 88.492188 84.4375 92.378906 84.726562 C 92.316406 84.324219 92.238281 83.496094 92.238281 82.691406 C 92.238281 81.886719 92.289062 81.234375 92.378906 80.675781 C 90.335938 80.8125 83.730469 80.972656 80.1875 80.972656 C 76.648438 80.972656 71.183594 80.855469 67.644531 80.675781 C 67.878906 85.695312 68.117188 90.828125 68.117188 95.902344 L 68.117188 106.050781 C 68.117188 111.128906 67.878906 116.261719 67.644531 121.394531 C 71.242188 121.21875 76.765625 121.101562 80.367188 121.101562 C 80.535156 121.101562 80.710938 121.101562 80.890625 121.101562 C 82.121094 121.105469 83.683594 121.121094 85.296875 121.152344 C 88.089844 121.203125 91.03125 121.289062 93.152344 121.394531 C 93.066406 120.777344 93.011719 120.121094 93.011719 119.226562 "/>
<path fill-rule="nonzero" fill="rgb(13.729858%, 12.159729%, 12.548828%)" fill-opacity="1" d="M 110.183594 99.261719 C 115.054688 99.160156 121.453125 97.613281 121.453125 90.878906 C 121.453125 85.015625 116.320312 83.148438 112.308594 83.148438 C 109.59375 83.148438 107.820312 83.328125 106.582031 83.445312 C 106.40625 87.753906 106.226562 91.710938 106.226562 95.960938 L 106.226562 99.207031 C 106.8125 99.285156 109.578125 99.269531 110.183594 99.261719 M 106.226562 101.421875 L 106.226562 106.113281 C 106.226562 111.1875 106.464844 116.320312 106.703125 121.394531 C 105.695312 121.21875 103.882812 121.199219 103.511719 121.199219 C 103.140625 121.199219 101.324219 121.21875 100.320312 121.394531 C 100.554688 116.320312 100.792969 111.1875 100.792969 106.113281 L 100.792969 95.960938 C 100.792969 90.886719 100.554688 85.753906 100.320312 80.675781 C 102.5625 80.855469 105.402344 80.972656 107.644531 80.972656 C 109.886719 80.972656 112.128906 80.675781 114.371094 80.675781 C 121.039062 80.675781 127.148438 82.648438 127.148438 90.074219 C 127.148438 97.933594 119.320312 100.753906 114.835938 101.34375 C 117.726562 104.941406 128.085938 117.558594 131.507812 121.394531 C 130.328125 121.21875 128.351562 121.199219 127.8125 121.199219 C 127.273438 121.199219 125.238281 121.21875 124.113281 121.394531 C 121.785156 117.839844 114.3125 106.644531 109.234375 101.417969 C 109.078125 101.417969 106.226562 101.421875 106.226562 101.421875 "/>
<path fill-rule="nonzero" fill="rgb(13.729858%, 12.159729%, 12.548828%)" fill-opacity="1" d="M 172.90625 80.65625 C 172.21875 80.777344 171.363281 80.875 170.320312 80.875 C 169.289062 80.875 168.40625 80.761719 167.804688 80.65625 C 168.0625 85.492188 168.507812 94.4375 168.507812 100.304688 C 168.507812 104.71875 168.507812 108.570312 168.445312 110.753906 C 166.300781 108.472656 141.675781 82.988281 139.175781 80.269531 L 137.242188 80.25 C 137.332031 84.003906 137.441406 88.078125 137.441406 95.515625 C 137.441406 105.03125 137.304688 115.15625 136.820312 121.394531 C 137.511719 121.277344 138.363281 121.179688 139.40625 121.179688 C 140.4375 121.179688 141.320312 121.289062 141.921875 121.394531 C 141.664062 116.5625 141.21875 107.613281 141.21875 101.75 C 141.21875 97.335938 141.21875 92.792969 141.28125 90.613281 C 143.425781 92.894531 168.1875 118.722656 170.550781 121.929688 L 172.484375 121.945312 C 172.394531 118.191406 172.285156 113.972656 172.285156 106.539062 C 172.285156 97.023438 172.421875 86.894531 172.90625 80.65625 "/>
<path fill-rule="nonzero" fill="rgb(13.729858%, 12.159729%, 12.548828%)" fill-opacity="1" d="M 65.492188 186.96875 C 53.894531 168.617188 50.59375 150.902344 50.132812 137.34375 L 44.773438 137.34375 C 45.222656 152.132812 48.808594 167.644531 56.835938 182.84375 C 58.726562 184.367188 63.167969 186.3125 65.492188 186.96875 "/>
<path fill-rule="nonzero" fill="rgb(13.729858%, 12.159729%, 12.548828%)" fill-opacity="1" d="M 282.042969 4.03125 C 282.042969 4.03125 148.691406 2.972656 106.171875 2.996094 C 99.519531 3 95.050781 3.46875 93.609375 3.5625 C 41.089844 6.964844 1.59375 53.015625 1.417969 103.242188 C 1.367188 117.839844 5.257812 134.296875 11.570312 156.507812 C 19.914062 185.851562 29.679688 219.511719 29.679688 219.511719 L 35.011719 219.511719 L 15.320312 153.078125 L 15.464844 152.980469 C 29.929688 180.925781 63.28125 203.371094 101.121094 203.371094 C 121.539062 203.371094 140.476562 197.65625 155.398438 187.128906 L 155.53125 187.25 L 67.929688 280.46875 L 74.769531 280.46875 C 74.769531 280.46875 136.28125 215.027344 157.207031 192.804688 C 173.238281 175.78125 181.566406 164.808594 185.054688 159.117188 C 189.050781 152.589844 201.753906 133.765625 201.277344 106.042969 L 201.449219 106.03125 L 239.835938 280.46875 L 245.347656 280.46875 C 245.347656 280.46875 213.140625 137.6875 206.886719 107.828125 C 200.738281 78.445312 193.472656 60.21875 185.628906 49.824219 C 182.9375 48.324219 178.734375 46.617188 176.753906 46.152344 C 188.136719 60.511719 196.636719 81.875 196.636719 103.25 C 196.636719 155.574219 154.066406 198.144531 101.742188 198.144531 C 49.417969 198.144531 6.847656 155.574219 6.847656 103.25 C 6.847656 50.925781 49.570312 8.355469 101.773438 8.355469 C 124.976562 8.355469 146.484375 16.863281 163.015625 30.878906 C 166.210938 31.320312 170.492188 32.320312 173.050781 33.242188 L 173.070312 33.1875 C 161.191406 21.34375 146.355469 12.539062 129.855469 7.90625 L 129.855469 7.773438 L 282.046875 8.71875 Z M 282.042969 4.03125 "/>
<path fill-rule="nonzero" fill="rgb(13.729858%, 12.159729%, 12.548828%)" fill-opacity="1" d="M 78.800781 203.847656 C 75.40625 203.347656 71.167969 202.144531 68.621094 201.054688 C 80.042969 214.054688 95.761719 224.457031 111.195312 230.292969 L 115.242188 225.996094 C 98.503906 220.34375 86.339844 211.257812 78.800781 203.847656 "/>
<path fill-rule="nonzero" fill="rgb(13.729858%, 12.159729%, 12.548828%)" fill-opacity="1" d="M 218.410156 196.253906 C 201.472656 216.988281 175.171875 230.953125 144.957031 230.933594 C 138.46875 230.929688 132.175781 230.207031 126.929688 229.136719 L 122.59375 233.742188 C 130.886719 235.65625 138.238281 236.378906 145.265625 236.378906 C 176.34375 236.378906 202.929688 221.875 219.851562 202.785156 L 218.410156 196.253906 "/>
<path fill-rule="nonzero" fill="rgb(13.729858%, 12.159729%, 12.548828%)" fill-opacity="1" d="M 253.707031 27.828125 L 244.566406 122.207031 L 244.394531 122.207031 C 243.097656 104.390625 234.214844 83.113281 223.25 69.664062 C 204.210938 46.316406 176.273438 32.21875 144.894531 32.21875 C 114.972656 32.21875 88.3125 45.496094 69.972656 66.308594 L 74.171875 69.636719 C 91.5 50.042969 116.320312 37.480469 144.890625 37.480469 C 179.671875 37.480469 208.007812 55.308594 223.855469 79.542969 C 237.996094 101.164062 242.6875 128.875 239.410156 149.175781 C 238.300781 156.035156 235.8125 169.367188 226.679688 184.472656 L 228.277344 191.503906 C 239.484375 174.128906 245.171875 158.671875 249.609375 119.148438 C 253.011719 88.832031 258.855469 27.824219 258.855469 27.824219 Z M 253.707031 27.828125 "/>
</svg>
