<?xml version="1.0" encoding="UTF-8"?>
<svg xmlns="http://www.w3.org/2000/svg" xmlns:xlink="http://www.w3.org/1999/xlink" width="393.281pt" height="393.615pt" viewBox="0 0 393.281 393.615">
<defs>
<clipPath id="clip-0">
<path clip-rule="nonzero" d="M 0 0 L 393.28125 0 L 393.28125 393.613281 L 0 393.613281 Z M 0 0 "/>
</clipPath>
<clipPath id="clip-1">
<path clip-rule="nonzero" d="M 0 162 L 232 162 L 232 393.613281 L 0 393.613281 Z M 0 162 "/>
</clipPath>
<clipPath id="clip-2">
<path clip-rule="nonzero" d="M 0 237 L 155 237 L 155 393.613281 L 0 393.613281 Z M 0 237 "/>
</clipPath>
<clipPath id="clip-3">
<path clip-rule="nonzero" d="M 0 299 L 96 299 L 96 393.613281 L 0 393.613281 Z M 0 299 "/>
</clipPath>
<clipPath id="clip-4">
<path clip-rule="nonzero" d="M 0 303 L 92 303 L 92 393.613281 L 0 393.613281 Z M 0 303 "/>
</clipPath>
<clipPath id="clip-5">
<path clip-rule="nonzero" d="M 0 344 L 51 344 L 51 393.613281 L 0 393.613281 Z M 0 344 "/>
</clipPath>
<clipPath id="clip-6">
<path clip-rule="nonzero" d="M 0 365 L 29 365 L 29 393.613281 L 0 393.613281 Z M 0 365 "/>
</clipPath>
<clipPath id="clip-7">
<path clip-rule="nonzero" d="M 0 160 L 359 160 L 359 393.613281 L 0 393.613281 Z M 0 160 "/>
</clipPath>
<clipPath id="clip-8">
<path clip-rule="nonzero" d="M 0 65 L 353 65 L 353 393.613281 L 0 393.613281 Z M 0 65 "/>
</clipPath>
<clipPath id="clip-9">
<path clip-rule="nonzero" d="M 0 228 L 343 228 L 343 393.613281 L 0 393.613281 Z M 0 228 "/>
</clipPath>
<clipPath id="clip-10">
<path clip-rule="nonzero" d="M 0 315 L 316 315 L 316 393.613281 L 0 393.613281 Z M 0 315 "/>
</clipPath>
<clipPath id="clip-11">
<path clip-rule="nonzero" d="M 0 0 L 393.28125 0 L 393.28125 393.613281 L 0 393.613281 Z M 0 0 "/>
</clipPath>
</defs>
<path fill-rule="nonzero" fill="rgb(99.198914%, 97.999573%, 95.698547%)" fill-opacity="1" d="M 392.523438 1.511719 L 392.703125 391.804688 L 1.855469 391.804688 L 1.671875 1.511719 Z M 392.523438 1.511719 "/>
<path fill-rule="nonzero" fill="rgb(52.198792%, 81.999207%, 98.399353%)" fill-opacity="1" d="M 1.609375 391.992188 C 1.609375 391.992188 393.441406 391.742188 392.207031 391.742188 C 390.960938 391.742188 392.058594 391.75 391.519531 383.640625 C 370.90625 71.28125 115.496094 2.984375 2.246094 2.238281 C 1.828125 2.234375 1.609375 2.269531 1.609375 2.269531 Z M 1.609375 391.992188 "/>
<g clip-path="url(#clip-0)">
<path fill="none" stroke-width="0.5" stroke-linecap="butt" stroke-linejoin="miter" stroke="rgb(16.499329%, 16.499329%, 16.499329%)" stroke-opacity="1" stroke-miterlimit="4" d="M -0.001425 0.0017125 C -0.001425 0.0017125 391.830606 0.251712 390.596231 0.251712 C 389.350138 0.251712 390.447794 0.2439 389.908731 8.353275 C 369.29545 320.71265 113.885294 389.009525 0.635294 389.755619 C 0.217325 389.759525 -0.001425 389.724369 -0.001425 389.724369 Z M -0.001425 0.0017125 " transform="matrix(1, 0, 0, -1, 1.6108, 391.9939)"/>
</g>
<path fill-rule="nonzero" fill="rgb(100%, 87.449646%, 50%)" fill-opacity="1" d="M 1.964844 165.144531 C 1.964844 165.144531 4.039062 165.382812 6 165.453125 C 91.996094 168.449219 222.480469 230.933594 227.988281 387.402344 C 228.152344 392.164062 228.292969 392.0625 228.292969 392.0625 C 1.855469 391.804688 1.8125 392.027344 1.8125 392.027344 Z M 1.964844 165.144531 "/>
<g clip-path="url(#clip-1)">
<path fill="none" stroke-width="0.5" stroke-linecap="butt" stroke-linejoin="miter" stroke="rgb(16.499329%, 16.499329%, 16.499329%)" stroke-opacity="1" stroke-miterlimit="4" d="M 0.00144375 -0.00173125 C 0.00144375 -0.00173125 2.075662 -0.240013 4.0366 -0.310325 C 90.032694 -3.306419 220.517069 -65.790794 226.024881 -222.259544 C 226.188944 -227.021263 226.329569 -226.9197 226.329569 -226.9197 C -0.107931 -226.661888 -0.1509 -226.884544 -0.1509 -226.884544 Z M 0.00144375 -0.00173125 " transform="matrix(1, 0, 0, -1, 1.9634, 165.1428)"/>
</g>
<path fill-rule="nonzero" fill="rgb(89.7995%, 91.398621%, 93.299866%)" fill-opacity="1" d="M 1.785156 240.777344 C 1.785156 240.777344 3.101562 241.097656 5.53125 241.160156 C 34.996094 241.933594 145.988281 263.929688 151.992188 390.902344 C 152.140625 394.082031 151.921875 392.0625 151.921875 392.0625 C 1.523438 392.140625 1.8125 392.027344 1.8125 392.027344 Z M 1.785156 240.777344 "/>
<g clip-path="url(#clip-2)">
<path fill="none" stroke-width="0.5" stroke-linecap="butt" stroke-linejoin="miter" stroke="rgb(16.499329%, 16.499329%, 16.499329%)" stroke-opacity="1" stroke-miterlimit="4" d="M -0.00194375 0.00175625 C -0.00194375 0.00175625 1.314463 -0.318556 3.74415 -0.381056 C 33.208994 -1.154494 144.201181 -23.150588 150.205087 -150.123244 C 150.353525 -153.302931 150.134775 -151.2834 150.134775 -151.2834 C -0.263662 -151.361525 0.0254 -151.248244 0.0254 -151.248244 Z M -0.00194375 0.00175625 " transform="matrix(1, 0, 0, -1, 1.7871, 240.7791)"/>
</g>
<path fill-rule="nonzero" fill="rgb(74.499512%, 68.199158%, 83.099365%)" fill-opacity="1" d="M 1.792969 301.910156 C 1.792969 301.910156 84.707031 297.328125 92.582031 390.265625 L 92.742188 392.140625 C 1.523438 392.140625 1.792969 392.199219 1.792969 392.199219 Z M 1.792969 301.910156 "/>
<g clip-path="url(#clip-3)">
<path fill="none" stroke-width="0.5" stroke-linecap="butt" stroke-linejoin="miter" stroke="rgb(51.998901%, 51.998901%, 51.998901%)" stroke-opacity="1" stroke-miterlimit="4" d="M -0.00093125 0.00074375 C -0.00093125 0.00074375 82.913131 4.582775 90.788131 -88.354725 L 90.948288 -90.229725 C -0.270462 -90.229725 -0.00093125 -90.288319 -0.00093125 -90.288319 Z M -0.00093125 0.00074375 " transform="matrix(1, 0, 0, -1, 1.7939, 301.9109)"/>
</g>
<path fill-rule="nonzero" fill="rgb(6.269836%, 6.669617%, 46.669006%)" fill-opacity="1" stroke-width="1.042" stroke-linecap="butt" stroke-linejoin="miter" stroke="rgb(100%, 100%, 100%)" stroke-opacity="1" stroke-miterlimit="4" d="M -0.001475 -0.00020625 C -7.685069 -5.1213 -17.685069 -6.953331 -26.962412 -6.953331 C -53.802256 -6.953331 -69.899912 9.999794 -69.899912 36.710731 C -69.899912 64.156044 -49.646006 79.765419 -23.903819 79.765419 C -15.001475 79.765419 -5.853037 77.695106 2.318838 74.156044 C 1.096181 71.109169 0.365713 67.937294 -0.243662 64.765419 L -1.099131 64.644325 C -2.806162 66.835731 -11.841319 75.132606 -24.399912 75.132606 C -46.837412 75.132606 -57.938975 56.956825 -57.938975 36.22245 C -57.938975 12.804481 -44.524912 -2.195519 -25.247569 -2.195519 C -12.0796 -2.195519 -1.8296 5.609169 0.611806 7.683388 Z M -0.001475 -0.00020625 " transform="matrix(1, 0, 0, -1, 101.5796, 128.0037)"/>
<path fill-rule="nonzero" fill="rgb(6.269836%, 6.669617%, 46.669006%)" fill-opacity="1" stroke-width="1.042" stroke-linecap="butt" stroke-linejoin="miter" stroke="rgb(100%, 100%, 100%)" stroke-opacity="1" stroke-miterlimit="4" d="M -0.0004875 0.00119375 C 3.171387 -30.123806 6.589356 -60.131619 9.878419 -83.428494 C 7.675294 -83.303494 5.976075 -83.0574 4.136231 -83.0574 C 2.198731 -83.0574 0.245606 -83.303494 -1.586425 -83.428494 C -3.660644 -58.908963 -6.10205 -32.565213 -7.812988 -20.490994 C -21.957519 -45.737088 -32.453613 -65.248806 -39.770019 -82.084744 L -41.109863 -82.084744 L -47.8208 -68.299588 C -55.6333 -52.205838 -64.168456 -36.350369 -72.465331 -20.490994 C -75.148925 -44.27615 -78.437988 -68.424588 -78.437988 -83.428494 C -80.031738 -83.303494 -81.367675 -83.0574 -82.711425 -83.0574 C -84.28955 -83.0574 -85.6333 -83.303494 -87.10205 -83.428494 C -83.922363 -63.791775 -76.613769 -12.803494 -75.387206 0.00119375 L -72.219238 0.00119375 C -62.453613 -19.393338 -50.750488 -42.323025 -37.691894 -63.912869 C -26.105956 -43.053494 -14.8833 -21.834744 -2.562988 0.00119375 Z M -0.0004875 0.00119375 " transform="matrix(1, 0, 0, -1, 200.8833, 50.0676)"/>
<path fill-rule="nonzero" fill="rgb(6.269836%, 6.669617%, 46.669006%)" fill-opacity="1" stroke-width="1.042" stroke-linecap="butt" stroke-linejoin="miter" stroke="rgb(100%, 100%, 100%)" stroke-opacity="1" stroke-miterlimit="4" d="M 0.00100625 -0.00124375 C 4.762725 -7.805931 10.2471 -12.688744 19.770537 -12.688744 C 29.649444 -12.688744 36.71585 -4.516869 36.71585 5.123756 C 36.71585 27.80735 -1.456025 17.80735 -1.456025 45.36985 C -1.456025 61.108131 10.981475 68.787819 25.6221 68.787819 C 31.481475 68.787819 38.5596 66.959694 43.063506 62.936256 C 41.598662 59.764381 40.751006 56.346413 39.774444 52.93235 L 38.5596 52.93235 C 35.989287 59.518288 30.626006 63.545631 23.422881 63.545631 C 15.008819 63.545631 8.0596 57.93235 8.0596 49.272194 C 8.0596 26.834694 46.477569 35.858131 46.477569 9.877663 C 46.477569 -7.563744 32.942412 -17.930931 16.352569 -17.930931 C 10.376006 -17.930931 0.610381 -15.368431 -3.530244 -10.860619 C -2.3154 -7.321556 -1.709931 -3.657494 -1.22165 -0.00124375 Z M 0.00100625 -0.00124375 " transform="matrix(1, 0, 0, -1, 225.8779, 117.0261)"/>
<path fill-rule="nonzero" fill="rgb(57.299805%, 89.7995%, 41.19873%)" fill-opacity="1" d="M 1.78125 306.425781 C 1.78125 306.425781 80.550781 302.074219 88.03125 390.367188 L 88.179688 392.140625 C 1.523438 392.140625 1.78125 392.199219 1.78125 392.199219 Z M 1.78125 306.425781 "/>
<g clip-path="url(#clip-4)">
<path fill="none" stroke-width="0.5" stroke-linecap="butt" stroke-linejoin="miter" stroke="rgb(16.499329%, 16.499329%, 16.499329%)" stroke-opacity="1" stroke-miterlimit="4" d="M 0.00095 0.00171875 C 0.00095 0.00171875 78.770481 4.353281 86.25095 -83.939687 L 86.399388 -85.713125 C -0.256862 -85.713125 0.00095 -85.771719 0.00095 -85.771719 Z M 0.00095 0.00171875 " transform="matrix(1, 0, 0, -1, 1.7803, 306.4275)"/>
</g>
<path fill-rule="nonzero" fill="rgb(57.299805%, 89.7995%, 41.19873%)" fill-opacity="1" d="M 1.761719 347.054688 C 1.761719 347.054688 43.207031 344.761719 47.152344 391.234375 L 47.226562 392.171875 C 1.523438 392.140625 1.761719 392.199219 1.761719 392.199219 Z M 1.761719 347.054688 "/>
<g clip-path="url(#clip-5)">
<path fill="none" stroke-width="0.5" stroke-linecap="butt" stroke-linejoin="miter" stroke="rgb(16.499329%, 16.499329%, 16.499329%)" stroke-opacity="1" stroke-miterlimit="4" d="M 0.00191875 -0.0001875 C 0.00191875 -0.0001875 41.447231 2.292781 45.392544 -44.179875 L 45.466763 -45.117375 C -0.236362 -45.086125 0.00191875 -45.144719 0.00191875 -45.144719 Z M 0.00191875 -0.0001875 " transform="matrix(1, 0, 0, -1, 1.7598, 347.0545)"/>
</g>
<path fill-rule="nonzero" fill="rgb(67.799377%, 92.199707%, 56.098938%)" fill-opacity="1" d="M 1.761719 368.65625 C 1.761719 368.65625 23.378906 367.464844 25.425781 391.695312 L 25.46875 392.183594 C 1.523438 392.140625 1.761719 392.199219 1.761719 392.199219 Z M 1.761719 368.65625 "/>
<g clip-path="url(#clip-6)">
<path fill="none" stroke-width="0.5" stroke-linecap="butt" stroke-linejoin="miter" stroke="rgb(51.998901%, 51.998901%, 51.998901%)" stroke-opacity="1" stroke-miterlimit="4" d="M 0.00191875 -0.00025 C 0.00191875 -0.00025 21.619106 1.191156 23.665981 -23.039312 L 23.70895 -23.527594 C -0.236362 -23.484625 0.00191875 -23.543219 0.00191875 -23.543219 Z M 0.00191875 -0.00025 " transform="matrix(1, 0, 0, -1, 1.7598, 368.656)"/>
</g>
<g clip-path="url(#clip-7)">
<path fill="none" stroke-width="9.048" stroke-linecap="round" stroke-linejoin="round" stroke="rgb(100%, 100%, 100%)" stroke-opacity="1" stroke-miterlimit="4" d="M -0.00004375 0.00174375 C -0.00004375 0.00174375 46.539019 100.740025 173.605425 130.329869 C 246.796831 147.361119 316.785113 186.689244 348.785113 224.013463 " transform="matrix(1, 0, 0, -1, 5.0352, 388.5369)"/>
</g>
<g clip-path="url(#clip-8)">
<path fill="none" stroke-width="9.048" stroke-linecap="round" stroke-linejoin="round" stroke="rgb(100%, 100%, 100%)" stroke-opacity="1" stroke-miterlimit="4" d="M 0.0000125 0.00175625 C 0.0000125 0.00175625 -77.996081 -91.31465 -199.433581 -161.349806 C -322.296863 -232.205275 -342.972644 -318.068556 -342.972644 -318.068556 " transform="matrix(1, 0, 0, -1, 348.0078, 70.4666)"/>
</g>
<g clip-path="url(#clip-9)">
<path fill="none" stroke-width="9.048" stroke-linecap="round" stroke-linejoin="round" stroke="rgb(100%, 100%, 100%)" stroke-opacity="1" stroke-miterlimit="4" d="M -0.00004375 0.00174375 C -0.00004375 0.00174375 51.070269 86.732213 154.613237 80.892369 C 236.238237 76.294713 309.800738 108.118931 332.800738 155.677525 " transform="matrix(1, 0, 0, -1, 5.0352, 388.5369)"/>
</g>
<g clip-path="url(#clip-10)">
<path fill="none" stroke-width="9.048" stroke-linecap="round" stroke-linejoin="round" stroke="rgb(100%, 100%, 100%)" stroke-opacity="1" stroke-miterlimit="4" d="M -0.00004375 0.00174375 C -0.00004375 0.00174375 40.503862 69.954869 166.640581 41.548619 C 280.804644 15.853306 288.031206 49.482213 306.0273 68.806431 " transform="matrix(1, 0, 0, -1, 5.0352, 388.5369)"/>
</g>
<path fill="none" stroke-width="6.032" stroke-linecap="round" stroke-linejoin="round" stroke="rgb(94.099426%, 14.099121%, 4.299927%)" stroke-opacity="1" stroke-miterlimit="4" d="M 0.0019375 0.00174375 C 0.0019375 0.00174375 46.541 100.740025 173.6035 130.329869 C 246.794906 147.361119 316.783187 186.689244 348.783187 224.013463 " transform="matrix(1, 0, 0, -1, 5.1465, 388.5369)"/>
<path fill="none" stroke-width="6.032" stroke-linecap="round" stroke-linejoin="round" stroke="rgb(94.099426%, 14.099121%, 4.299927%)" stroke-opacity="1" stroke-miterlimit="4" d="M -0.0019125 0.00175625 C -0.0019125 0.00175625 -77.9941 -91.31465 -199.435506 -161.349806 C -322.298788 -232.205275 -342.974569 -318.068556 -342.974569 -318.068556 " transform="matrix(1, 0, 0, -1, 348.1191, 70.4666)"/>
<path fill="none" stroke-width="6.032" stroke-linecap="round" stroke-linejoin="round" stroke="rgb(94.099426%, 14.099121%, 4.299927%)" stroke-opacity="1" stroke-miterlimit="4" d="M 0.0019375 0.00174375 C 0.0019375 0.00174375 51.068344 86.732213 154.611312 80.892369 C 236.236312 76.294713 309.798812 108.118931 332.802719 155.677525 " transform="matrix(1, 0, 0, -1, 5.1465, 388.5369)"/>
<path fill="none" stroke-width="6.032" stroke-linecap="round" stroke-linejoin="round" stroke="rgb(94.099426%, 14.099121%, 4.299927%)" stroke-opacity="1" stroke-miterlimit="4" d="M 0.0019375 0.00174375 C 0.0019375 0.00174375 40.505844 69.954869 166.642562 41.548619 C 280.802719 15.853306 288.029281 49.482213 306.029281 68.806431 " transform="matrix(1, 0, 0, -1, 5.1465, 388.5369)"/>
<g clip-path="url(#clip-11)">
<path fill="none" stroke-width="3.016" stroke-linecap="butt" stroke-linejoin="round" stroke="rgb(0%, 0%, 0%)" stroke-opacity="1" stroke-miterlimit="4" d="M 391.804688 392.02125 L 1.523438 392.02125 L 1.523438 1.474375 L 391.804688 1.474375 Z M 391.804688 392.02125 " transform="matrix(1, 0, 0, -1, 0, 393.615)"/>
</g>
</svg>
