<?xml version="1.0" encoding="UTF-8"?>
<svg xmlns="http://www.w3.org/2000/svg" xmlns:xlink="http://www.w3.org/1999/xlink" width="405.651pt" height="406.244pt" viewBox="0 0 405.651 406.244">
<path fill-rule="nonzero" fill="rgb(100%, 100%, 100%)" fill-opacity="1" d="M 63.183594 321.992188 C 62.03125 321.171875 60.851562 320.375 59.648438 319.605469 C 59.320312 319.972656 59.003906 320.339844 58.679688 320.703125 C 59.8125 321.429688 60.941406 322.179688 62.058594 322.972656 C 62.4375 322.644531 62.800781 322.320312 63.183594 321.992188 "/>
<path fill-rule="nonzero" fill="rgb(100%, 100%, 100%)" fill-opacity="1" d="M 74.3125 331.417969 C 73.078125 330.171875 71.808594 328.960938 70.496094 327.796875 C 70.109375 328.125 69.738281 328.449219 69.359375 328.773438 C 70.5625 329.847656 71.75 330.972656 72.921875 332.144531 C 73.378906 331.902344 73.847656 331.660156 74.3125 331.417969 "/>
<path fill-rule="nonzero" fill="rgb(100%, 100%, 100%)" fill-opacity="1" d="M 85.359375 348.074219 C 85.902344 347.976562 86.453125 347.882812 87.007812 347.792969 C 85.042969 344.519531 82.902344 341.421875 80.582031 338.492188 C 80.117188 338.726562 79.652344 338.964844 79.191406 339.203125 C 81.355469 341.933594 83.417969 344.882812 85.359375 348.074219 "/>
<path fill-rule="nonzero" fill="rgb(100%, 100%, 100%)" fill-opacity="1" d="M 399.121094 399.8125 L 399.128906 399.8125 L 399.136719 399.800781 C 399.148438 399.789062 399.144531 399.75 399.136719 399.730469 L 399.125 399.714844 C 399.082031 399.652344 399.050781 399.597656 399.089844 399.570312 C 399.117188 399.546875 399.15625 399.550781 399.183594 399.578125 L 399.21875 399.539062 C 399.171875 399.5 399.105469 399.492188 399.058594 399.527344 C 398.980469 399.585938 399.042969 399.683594 399.082031 399.742188 L 399.089844 399.753906 C 399.089844 399.757812 399.09375 399.765625 399.09375 399.773438 C 399.039062 399.800781 398.964844 399.773438 398.917969 399.742188 L 398.886719 399.78125 C 398.929688 399.8125 398.984375 399.835938 399.039062 399.835938 C 399.070312 399.835938 399.097656 399.832031 399.121094 399.8125 "/>
<path fill-rule="nonzero" fill="rgb(100%, 100%, 100%)" fill-opacity="1" d="M 399.316406 399.628906 L 399.324219 399.578125 C 399.296875 399.574219 399.222656 399.5625 399.183594 399.636719 C 399.15625 399.683594 399.152344 399.742188 399.171875 399.792969 C 399.199219 399.847656 399.242188 399.859375 399.28125 399.859375 C 399.304688 399.859375 399.324219 399.855469 399.335938 399.851562 L 399.324219 399.804688 C 399.265625 399.816406 399.238281 399.808594 399.222656 399.773438 C 399.207031 399.738281 399.210938 399.695312 399.230469 399.660156 C 399.246094 399.625 399.277344 399.625 399.316406 399.628906 "/>
<path fill-rule="nonzero" fill="rgb(100%, 100%, 100%)" fill-opacity="1" d="M 399.503906 399.78125 C 399.488281 399.785156 399.46875 399.777344 399.460938 399.765625 L 399.421875 399.800781 C 399.4375 399.820312 399.464844 399.835938 399.492188 399.835938 C 399.5 399.835938 399.507812 399.832031 399.515625 399.832031 C 399.546875 399.820312 399.570312 399.796875 399.574219 399.765625 C 399.582031 399.730469 399.582031 399.695312 399.578125 399.652344 L 399.574219 399.640625 L 399.574219 399.621094 L 399.570312 399.605469 L 399.5625 399.597656 C 399.546875 399.582031 399.503906 399.546875 399.464844 399.570312 L 399.492188 399.613281 C 399.496094 399.609375 399.507812 399.617188 399.523438 399.632812 L 399.523438 399.636719 C 399.519531 399.644531 399.507812 399.652344 399.496094 399.65625 C 399.492188 399.65625 399.480469 399.65625 399.472656 399.648438 C 399.46875 399.636719 399.472656 399.621094 399.480469 399.601562 L 399.433594 399.582031 C 399.425781 399.601562 399.410156 399.644531 399.429688 399.679688 L 399.433594 399.683594 C 399.449219 399.699219 399.46875 399.707031 399.492188 399.707031 C 399.496094 399.707031 399.5 399.707031 399.507812 399.707031 C 399.515625 399.703125 399.519531 399.695312 399.527344 399.691406 C 399.527344 399.714844 399.53125 399.738281 399.523438 399.757812 C 399.523438 399.773438 399.511719 399.777344 399.503906 399.78125 "/>
<path fill-rule="nonzero" fill="rgb(100%, 100%, 100%)" fill-opacity="1" d="M 399.671875 399.679688 L 399.667969 399.679688 L 399.667969 399.710938 C 399.667969 399.722656 399.667969 399.730469 399.664062 399.742188 C 399.660156 399.765625 399.65625 399.789062 399.652344 399.8125 L 399.703125 399.820312 C 399.707031 399.796875 399.710938 399.773438 399.714844 399.75 C 399.714844 399.742188 399.714844 399.738281 399.71875 399.730469 L 399.722656 399.730469 L 399.722656 399.679688 C 399.726562 399.652344 399.734375 399.625 399.730469 399.597656 L 399.730469 399.574219 L 399.613281 399.574219 L 399.613281 399.625 L 399.679688 399.625 C 399.679688 399.640625 399.675781 399.660156 399.671875 399.679688 "/>
<path fill-rule="nonzero" fill="rgb(100%, 100%, 100%)" fill-opacity="1" d="M 219.539062 309.503906 C 213.949219 294.925781 207.253906 281.363281 199.433594 268.90625 C 199.078125 268.339844 198.703125 267.789062 198.34375 267.222656 C 197.570312 267.433594 196.800781 267.640625 196.027344 267.84375 C 204.3125 280.671875 211.355469 294.683594 217.179688 309.84375 C 217.96875 309.734375 218.753906 309.621094 219.539062 309.503906 "/>
<path fill-rule="nonzero" fill="rgb(100%, 100%, 100%)" fill-opacity="1" d="M 192.929688 259.175781 C 186.453125 250.023438 179.3125 241.503906 171.539062 233.632812 C 170.855469 234.050781 170.167969 234.464844 169.480469 234.882812 C 177.136719 242.566406 184.152344 250.878906 190.53125 259.804688 C 191.332031 259.597656 192.132812 259.386719 192.929688 259.175781 "/>
<path fill-rule="nonzero" fill="rgb(100%, 100%, 100%)" fill-opacity="1" d="M 233.863281 361.1875 C 231.078125 346.089844 227.367188 331.785156 222.742188 318.300781 C 221.964844 318.421875 221.179688 318.53125 220.398438 318.644531 C 224.957031 331.925781 228.605469 346.058594 231.367188 361.003906 C 232.210938 361.070312 233.039062 361.128906 233.863281 361.1875 "/>
<path fill-rule="nonzero" fill="rgb(100%, 100%, 100%)" fill-opacity="1" d="M 114.476562 287.078125 C 111.160156 283.855469 107.675781 280.8125 104.039062 277.933594 C 103.390625 278.449219 102.746094 278.960938 102.105469 279.476562 C 105.652344 282.242188 109.042969 285.171875 112.269531 288.257812 C 113 287.863281 113.734375 287.46875 114.476562 287.078125 "/>
<path fill-rule="nonzero" fill="rgb(100%, 100%, 100%)" fill-opacity="1" d="M 151.347656 347.484375 C 148.277344 338.238281 144.578125 329.558594 140.25 321.480469 C 139.390625 321.550781 138.546875 321.644531 137.699219 321.730469 C 141.992188 329.621094 145.679688 338.089844 148.738281 347.148438 C 149.605469 347.253906 150.472656 347.367188 151.347656 347.484375 "/>
<path fill-rule="nonzero" fill="rgb(100%, 100%, 100%)" fill-opacity="1" d="M 135.203125 312.773438 C 135.191406 312.757812 135.179688 312.738281 135.171875 312.722656 C 130.953125 306.007812 126.238281 299.757812 121.066406 293.96875 C 120.339844 294.34375 119.628906 294.722656 118.910156 295.101562 C 123.929688 300.648438 128.492188 306.640625 132.597656 313.074219 C 133.460938 312.964844 134.332031 312.867188 135.203125 312.773438 "/>
<path fill-rule="nonzero" fill="rgb(100%, 100%, 100%)" fill-opacity="1" d="M 77.339844 329.867188 C 78.097656 329.488281 78.859375 329.113281 79.628906 328.742188 C 78.117188 327.148438 76.546875 325.613281 74.914062 324.136719 C 74.28125 324.648438 73.652344 325.164062 73.03125 325.675781 C 74.492188 327 75.929688 328.398438 77.339844 329.867188 "/>
<path fill-rule="nonzero" fill="rgb(100%, 100%, 100%)" fill-opacity="1" d="M 93.011719 346.894531 C 90.835938 343.035156 88.425781 339.394531 85.796875 335.960938 C 85.03125 336.316406 84.277344 336.675781 83.523438 337.039062 C 85.941406 340.171875 88.238281 343.566406 90.375 347.265625 C 91.246094 347.136719 92.125 347.011719 93.011719 346.894531 "/>
<path fill-rule="nonzero" fill="rgb(100%, 100%, 100%)" fill-opacity="1" d="M 67.671875 318.222656 C 66.320312 317.230469 64.929688 316.269531 63.507812 315.34375 C 62.964844 315.933594 62.421875 316.523438 61.890625 317.113281 C 63.195312 317.960938 64.492188 318.851562 65.785156 319.792969 C 66.40625 319.269531 67.039062 318.746094 67.671875 318.222656 "/>
<path fill-rule="nonzero" fill="rgb(100%, 100%, 100%)" fill-opacity="1" d="M 5.390625 388.839844 L 5.390625 377.464844 C 6.390625 377.5 7.875 377.625 9.613281 377.988281 C 9.945312 377.242188 10.292969 376.484375 10.652344 375.707031 C 8.457031 375.214844 6.59375 375.0625 5.390625 375.019531 L 5.390625 357 C 7.871094 357.019531 13.273438 357.335938 19.472656 359.332031 C 19.886719 358.617188 20.308594 357.894531 20.738281 357.160156 C 13.980469 354.917969 8.058594 354.574219 5.390625 354.554688 L 5.390625 305.632812 C 5.628906 305.628906 5.890625 305.625 6.195312 305.625 C 12.792969 305.625 31.460938 306.574219 50.546875 316.09375 C 50.867188 315.722656 51.199219 315.347656 51.527344 314.972656 C 31.625 304.941406 12.058594 304.097656 6.195312 304.097656 C 5.894531 304.097656 5.628906 304.101562 5.390625 304.105469 L 5.390625 300.941406 C 5.652344 300.9375 5.957031 300.933594 6.300781 300.933594 C 13.332031 300.933594 33.441406 301.960938 53.792969 312.421875 C 54.335938 311.816406 54.875 311.210938 55.429688 310.601562 C 33.980469 299.410156 12.621094 298.488281 6.300781 298.488281 C 5.960938 298.488281 5.65625 298.492188 5.390625 298.496094 L 5.390625 247.6875 C 5.90625 247.675781 6.585938 247.664062 7.410156 247.664062 C 17.414062 247.664062 52.679688 249.203125 86.558594 268.960938 C 89.257812 270.535156 91.882812 272.183594 94.429688 273.902344 C 95.082031 273.371094 95.734375 272.84375 96.398438 272.3125 C 93.605469 270.402344 90.742188 268.574219 87.789062 266.847656 C 53.378906 246.78125 17.570312 245.222656 7.410156 245.222656 C 6.589844 245.222656 5.914062 245.230469 5.390625 245.242188 L 5.390625 170.808594 C 6.203125 170.78125 7.429688 170.757812 9.015625 170.757812 C 24.003906 170.757812 76.839844 173.058594 127.601562 202.664062 C 140.382812 210.117188 152.042969 218.691406 162.617188 228.328125 C 163.328125 227.902344 164.027344 227.476562 164.730469 227.046875 C 153.863281 217.023438 141.882812 208.164062 128.832031 200.554688 C 77.539062 170.640625 24.15625 168.3125 9.015625 168.3125 C 7.433594 168.3125 6.21875 168.335938 5.390625 168.363281 L 5.390625 5.128906 L 19.046875 5.128906 C 49.636719 6.988281 121.925781 15.578125 196.085938 54.84375 C 197.566406 55.628906 197.054688 55.320312 198.519531 56.121094 C 199.167969 54.945312 199.035156 55.195312 199.710938 53.980469 C 198.230469 53.167969 198.722656 53.464844 197.226562 52.671875 C 138.953125 21.824219 81.808594 9.804688 44.921875 5.128906 L 399.855469 5.128906 L 399.855469 372.339844 C 391.921875 304.585938 373.21875 244.941406 344.085938 194.414062 C 343.550781 194.867188 343.007812 195.3125 342.464844 195.761719 C 374.066406 250.769531 393.15625 316.746094 399.5 393.359375 C 399.652344 395.15625 399.765625 396.585938 399.855469 397.75 L 399.855469 400.046875 L 238.871094 400.046875 L 238.59375 396.769531 C 237.828125 387.722656 236.761719 378.914062 235.421875 370.339844 C 234.605469 370.296875 233.773438 370.242188 232.941406 370.1875 C 234.300781 378.855469 235.382812 387.777344 236.160156 396.976562 L 236.421875 400.046875 L 161.570312 400.046875 L 161.433594 398.460938 C 160.1875 383.75 157.800781 369.960938 154.292969 357.160156 C 153.425781 357.027344 152.558594 356.894531 151.699219 356.777344 C 155.289062 369.675781 157.730469 383.640625 159.003906 398.667969 L 159.117188 400.046875 L 108.019531 400.046875 L 107.984375 399.625 C 106.578125 383.003906 103.03125 368.304688 97.382812 355.585938 C 96.515625 355.6875 95.648438 355.785156 94.800781 355.894531 C 100.199219 367.789062 104.066406 382.25 105.554688 399.832031 L 105.570312 400.046875 L 102.417969 400.046875 L 102.398438 399.8125 C 101 383.292969 97.363281 368.785156 91.539062 356.339844 C 90.996094 356.417969 90.472656 356.511719 89.9375 356.59375 C 95.445312 368.210938 99.398438 382.453125 100.878906 399.945312 L 100.886719 400.046875 L 51.472656 400.046875 C 50.371094 388.179688 46.925781 379.394531 42.347656 372.902344 C 41.617188 373.328125 40.902344 373.757812 40.199219 374.1875 C 44.601562 380.347656 47.9375 388.707031 49.019531 400.046875 L 30.574219 400.046875 C 29.882812 393.28125 27.816406 388.332031 25.105469 384.726562 C 24.464844 385.292969 23.839844 385.855469 23.242188 386.40625 C 25.636719 389.644531 27.480469 394.050781 28.136719 400.046875 L 5.390625 400.046875 Z M 3.792969 403.117188 C 3.785156 403.113281 4.996094 403.121094 4.992188 403.117188 C 4.980469 403.113281 4.972656 403.105469 4.960938 403.101562 L 8.890625 403.101562 C 8.882812 403.105469 8.875 403.109375 8.863281 403.113281 C 10.875 403.109375 13.636719 403.105469 17.40625 403.101562 L 401.382812 403.101562 C 402.222656 403.101562 402.90625 402.414062 402.90625 401.570312 L 402.90625 3.605469 C 402.90625 2.761719 402.222656 2.078125 401.382812 2.078125 L 3.863281 2.078125 C 3.019531 2.078125 2.335938 2.761719 2.335938 3.605469 L 2.335938 401.570312 C 2.335938 402.007812 2.519531 402.398438 2.8125 402.675781 "/>
<path fill-rule="nonzero" fill="rgb(100%, 100%, 100%)" fill-opacity="1" d="M 81.921875 53.078125 C 94.699219 53.078125 103.878906 61.527344 105.617188 63.761719 L 106.484375 63.636719 C 107.105469 60.40625 107.851562 57.179688 109.089844 54.074219 C 100.777344 50.472656 91.472656 48.359375 82.417969 48.359375 C 56.238281 48.359375 35.644531 64.257812 35.644531 92.203125 C 35.644531 119.40625 52.019531 136.671875 79.316406 136.671875 C 88.746094 136.671875 98.917969 134.808594 106.734375 129.589844 L 107.355469 121.765625 C 104.871094 123.878906 94.453125 131.828125 81.050781 131.828125 C 61.449219 131.828125 47.800781 116.550781 47.800781 92.703125 C 47.800781 71.585938 59.089844 53.078125 81.921875 53.078125 "/>
<path fill-rule="nonzero" fill="rgb(100%, 100%, 100%)" fill-opacity="1" d="M 328.628906 169.867188 C 320.351562 157.824219 311.402344 146.367188 301.796875 135.511719 C 301.277344 135.980469 300.757812 136.453125 300.230469 136.929688 C 314.15625 152.621094 326.667969 169.578125 337.753906 187.789062 C 338.289062 187.339844 338.832031 186.890625 339.359375 186.441406 C 335.914062 180.800781 332.339844 175.269531 328.628906 169.867188 "/>
<path fill-rule="nonzero" fill="rgb(100%, 100%, 100%)" fill-opacity="1" d="M 260.019531 98.332031 C 262.933594 100.71875 265.796875 103.148438 268.625 105.613281 C 266.121094 102.746094 263.191406 100.964844 260.019531 98.332031 "/>
<path fill-rule="nonzero" fill="rgb(100%, 100%, 100%)" fill-opacity="1" d="M 280.695312 113.519531 C 280.566406 114.386719 280.921875 115.324219 280.195312 116.054688 C 285.171875 120.78125 289.402344 125.171875 294.078125 130.167969 C 294.605469 129.691406 295.125 129.21875 295.648438 128.746094 C 290.628906 123.359375 286.046875 118.59375 280.695312 113.519531 "/>
<path fill-rule="nonzero" fill="rgb(100%, 100%, 100%)" fill-opacity="1" d="M 210.722656 64.300781 C 218.671875 68.878906 223.496094 71.675781 230.964844 76.695312 C 230.296875 73.789062 230.535156 74.429688 230.457031 73.484375 C 223.027344 68.523438 218.265625 65.796875 210.398438 61.300781 C 210.503906 62.300781 210.613281 63.300781 210.722656 64.300781 "/>
<path fill-rule="nonzero" fill="rgb(100%, 100%, 100%)" fill-opacity="1" d="M 241.34375 68.234375 C 241.34375 59.414062 248.417969 53.699219 256.976562 53.699219 C 264.296875 53.699219 269.757812 57.800781 272.363281 64.503906 L 273.601562 64.503906 C 274.597656 61.027344 275.464844 57.550781 276.953125 54.320312 C 272.363281 50.222656 265.167969 48.359375 259.210938 48.359375 C 244.324219 48.359375 231.667969 56.183594 231.667969 72.207031 C 231.667969 100.277344 270.5 90.09375 270.5 113.195312 C 270.5 123.007812 263.304688 131.332031 253.257812 131.332031 C 243.578125 131.332031 237.996094 126.363281 233.15625 118.414062 L 231.917969 118.414062 C 231.417969 122.140625 230.800781 125.863281 229.558594 129.46875 C 233.777344 134.0625 243.703125 136.671875 249.78125 136.671875 C 266.65625 136.671875 280.425781 126.113281 280.425781 108.351562 C 280.425781 81.894531 241.34375 91.085938 241.34375 68.234375 "/>
<path fill-rule="nonzero" fill="rgb(100%, 100%, 100%)" fill-opacity="1" d="M 204.121094 50.035156 C 191.59375 72.269531 180.175781 93.882812 168.390625 115.121094 C 155.117188 93.136719 143.207031 69.785156 133.28125 50.035156 L 130.054688 50.035156 C 128.8125 63.078125 121.371094 114.996094 118.144531 134.996094 C 119.632812 134.871094 120.996094 134.621094 122.609375 134.621094 C 123.972656 134.621094 125.339844 134.871094 126.953125 134.996094 C 126.953125 119.71875 130.300781 95.125 133.03125 70.902344 C 141.46875 87.050781 150.152344 103.199219 158.09375 119.59375 L 164.917969 133.628906 L 166.28125 133.628906 C 173.726562 116.488281 184.394531 96.613281 198.789062 70.902344 C 200.523438 83.199219 203.007812 110.03125 205.113281 134.996094 C 206.976562 134.871094 208.960938 134.621094 210.945312 134.621094 C 212.808594 134.621094 214.542969 134.871094 216.777344 134.996094 C 213.429688 111.269531 209.953125 80.714844 206.730469 50.035156 Z M 204.121094 50.035156 "/>
<path fill-rule="nonzero" fill="rgb(100%, 100%, 100%)" fill-opacity="1" d="M 44.890625 368.566406 C 68.515625 355.917969 110.390625 343.929688 175.707031 358.65625 C 278.789062 381.894531 297.96875 357.53125 313.378906 337.957031 C 315.5625 335.179688 317.625 332.558594 319.851562 330.167969 C 320.792969 329.15625 320.734375 327.574219 319.722656 326.632812 C 318.710938 325.691406 317.128906 325.75 316.191406 326.761719 C 313.824219 329.304688 311.699219 332.003906 309.449219 334.863281 C 301.816406 344.558594 293.925781 354.585938 275.519531 359.757812 C 253.894531 365.832031 221.605469 363.878906 176.804688 353.777344 C 109.777344 338.667969 66.617188 351.175781 42.214844 364.328125 C 39.277344 365.910156 36.542969 367.539062 33.988281 369.179688 C 38.046875 365.171875 42.589844 361.03125 47.625 356.929688 C 71.117188 337.800781 110.351562 315.625 163.878906 318.648438 C 204.171875 320.921875 244.691406 314.40625 277.96875 300.292969 C 311.160156 286.21875 335.851562 265.191406 347.5 241.085938 C 348.101562 239.839844 347.582031 238.347656 346.335938 237.746094 C 345.09375 237.144531 343.597656 237.667969 343 238.910156 C 331.878906 261.925781 308.089844 282.089844 276.015625 295.691406 C 243.429688 309.507812 203.703125 315.890625 164.160156 313.65625 C 108.957031 310.539062 68.519531 333.425781 44.320312 353.175781 C 39.867188 356.808594 35.808594 360.449219 32.117188 364 C 36.777344 358.074219 42.1875 351.722656 48.402344 345.191406 C 73.703125 318.601562 117.75 283.667969 183.902344 268.25 C 255.347656 251.59375 329.160156 212.027344 363.40625 172.03125 C 364.304688 170.980469 364.183594 169.402344 363.132812 168.503906 C 362.085938 167.605469 360.507812 167.730469 359.609375 168.777344 C 325.992188 208.042969 253.269531 246.945312 182.769531 263.378906 C 115.410156 279.082031 70.550781 314.660156 44.78125 341.746094 C 35.050781 351.96875 27.277344 361.699219 21.25 370.085938 C 24.839844 363.230469 29.398438 355.417969 35.144531 346.941406 C 54.046875 319.054688 90.011719 278.054688 154.011719 241.097656 C 276.476562 170.378906 356.703125 77.175781 357.5 76.242188 C 358.394531 75.191406 358.269531 73.617188 357.21875 72.71875 C 356.167969 71.824219 354.59375 71.949219 353.695312 73 C 352.902344 73.925781 273.199219 166.5 151.511719 236.765625 C 86.546875 274.28125 50.027344 316 30.832031 344.390625 C 14.636719 368.34375 7.765625 386.789062 5.390625 394.296875 L 5.414062 400.046875 L 9.417969 400.046875 C 11.632812 395.628906 22.300781 380.660156 44.890625 368.566406 "/>
<path fill="none" stroke-width="0.5" stroke-linecap="butt" stroke-linejoin="miter" stroke="rgb(100%, 100%, 100%)" stroke-opacity="1" stroke-miterlimit="4" d="M 0.000525 -0.00110625 C 23.625525 12.647331 65.500525 24.635613 130.816931 9.90905 C 233.898962 -13.329231 253.07865 11.03405 268.488806 30.608269 C 270.6724 33.385613 272.7349 36.006706 274.961462 38.397331 C 275.902869 39.40905 275.844275 40.991081 274.832556 41.932488 C 273.820837 42.873894 272.238806 42.8153 271.301306 41.803581 C 268.934119 39.260613 266.809119 36.561394 264.559119 33.702019 C 256.926306 24.006706 249.035681 13.979363 230.629431 8.807488 C 209.004431 2.733269 176.715369 4.686394 131.914587 14.787956 C 64.887244 29.897331 21.727087 17.389519 -2.675256 4.237175 C -5.612756 2.655144 -8.347131 1.026238 -10.901819 -0.614387 C -6.843225 3.393425 -2.300256 7.53405 2.7349 11.635613 C 26.227087 30.764519 65.461462 52.9403 118.988806 49.916863 C 159.281775 47.643425 199.801306 54.15905 233.07865 68.272331 C 266.270056 82.34655 290.961462 103.373894 302.6099 127.479363 C 303.211462 128.725456 302.691931 130.217644 301.445837 130.819206 C 300.20365 131.420769 298.707556 130.897331 298.1099 129.655144 C 286.988806 106.639519 263.199744 86.475456 231.125525 72.873894 C 198.539587 59.057488 158.813025 52.674675 119.270056 54.90905 C 64.066931 58.026238 23.629431 35.139519 -0.569788 15.389519 C -5.022913 11.756706 -9.081506 8.116081 -12.772913 4.5653 C -8.112756 10.491081 -2.7026 16.842644 3.512244 23.373894 C 28.813025 49.963738 72.8599 84.897331 139.012244 100.3153 C 210.457556 116.97155 284.270056 156.537956 318.51615 196.53405 C 319.414587 197.584831 319.293494 199.162956 318.242712 200.061394 C 317.195837 200.959831 315.617712 200.834831 314.719275 199.787956 C 281.102087 160.522331 208.379431 121.619988 137.879431 105.186394 C 70.520056 89.483269 25.660681 53.905144 -0.10885 26.819206 C -9.839319 16.59655 -17.612756 6.866081 -23.6401 -1.520637 C -20.050256 5.334831 -15.491663 13.147331 -9.745569 21.623894 C 9.156775 49.510613 45.121619 90.510613 109.121619 127.467644 C 231.586462 198.186394 311.813025 291.389519 312.6099 292.323113 C 313.504431 293.373894 313.379431 294.948113 312.32865 295.84655 C 311.277869 296.741081 309.70365 296.616081 308.805212 295.5653 C 308.012244 294.639519 228.309119 202.0653 106.621619 131.799675 C 41.656775 94.28405 5.137244 52.5653 -14.058069 24.174675 C -30.253381 0.22155 -37.124475 -18.223762 -39.499475 -25.731575 L -39.476038 -31.481575 L -35.472131 -31.481575 C -33.257288 -27.063606 -22.589319 -12.094856 0.000525 -0.00110625 Z M 0.000525 -0.00110625 " transform="matrix(1, 0, 0, -1, 44.8901, 368.5653)"/>
</svg>
