<?xml version="1.0" encoding="UTF-8"?>
<svg id="Layer_2" xmlns="http://www.w3.org/2000/svg" viewBox="0 0 949.17 824.32">
  <defs>
    <style>
      .cls-1 {
        fill: #fff;
      }

      .cls-2 {
        opacity: .5;
        stroke-dasharray: 10;
        stroke-linejoin: round;
      }

      .cls-2, .cls-3, .cls-4, .cls-5, .cls-6 {
        fill: none;
      }

      .cls-2, .cls-3, .cls-5, .cls-6 {
        stroke: #262626;
      }

      .cls-2, .cls-3, .cls-6 {
        stroke-width: 5px;
      }

      .cls-2, .cls-7, .cls-5, .cls-6 {
        stroke-linecap: round;
      }

      .cls-8, .cls-9, .cls-7 {
        fill: #262626;
      }

      .cls-3, .cls-9, .cls-7, .cls-5, .cls-6 {
        stroke-miterlimit: 10;
      }

      .cls-9, .cls-7 {
        stroke: #72858c;
        stroke-width: 3px;
      }

      .cls-5 {
        stroke-width: 6px;
      }
    </style>
  </defs>
  <g id="Layer_1-2" data-name="Layer_1">
    <g>
      <g>
        <path class="cls-8" d="M37.27,604.62c0-.64.1-1.22.27-1.73-4.78-.08-9.55-.16-14.33-.24v14.7c4.7.2,9.39.41,14.09.61-.01-.16-.02-.31-.02-.48v-12.86Z"/>
        <path class="cls-8" d="M12.88,602.48c-4.29-.07-8.59-.14-12.88-.21.49,4.72,1,9.43,1.49,14.14,3.8.17,7.6.33,11.4.5v-14.42Z"/>
        <path class="cls-8" d="M47.52,618.41c5.27.23,10.54.46,15.81.69v-14.97c0-.28.02-.55.06-.8-5.34-.09-10.67-.18-16.01-.27.14.48.22,1,.22,1.57v12.86c0,.32-.03.63-.08.92Z"/>
        <path class="cls-8" d="M94.43,620.45v-16.07c0-.19.01-.37.03-.55-6.95-.12-13.89-.23-20.84-.35.02.2.03.42.03.63v15.42c6.92.3,13.85.6,20.77.91Z"/>
        <path class="cls-8" d="M168.79,623.69v-17.82c0-.28.02-.55.06-.8-8.97-.15-17.94-.3-26.91-.45,0,.09.01.18.01.27v17.63c8.95.39,17.89.78,26.84,1.17Z"/>
        <path class="cls-8" d="M205.95,625.31v-18.46c0-.41.04-.8.12-1.16-9-.15-17.99-.3-26.99-.45.02.2.03.42.03.63v18.27c8.95.39,17.89.78,26.84,1.17Z"/>
        <path class="cls-8" d="M252.9,627.36v-19.53c0-.49.06-.94.17-1.36-12.29-.2-24.58-.41-36.88-.61.05.31.09.64.09,1v18.91c12.21.53,24.41,1.06,36.62,1.6Z"/>
        <path class="cls-8" d="M300.82,629.44v-20.64c0-.56.08-1.08.21-1.54-12.65-.21-25.29-.42-37.94-.63.08.37.12.77.12,1.19v19.98c12.53.55,25.07,1.09,37.6,1.64Z"/>
        <path class="cls-8" d="M352.66,631.7v-20.94c0-1.04.25-1.92.68-2.63-14.12-.23-28.24-.47-42.36-.7.11.42.17.88.17,1.38v21.09c13.84.6,27.67,1.21,41.51,1.81Z"/>
        <path class="cls-8" d="M401.56,610.76c0-.68.11-1.28.3-1.82-13.16-.22-26.32-.44-39.48-.66.38.69.6,1.51.6,2.48v21.39c8.89.39,17.77.77,26.66,1.16,3.16.14,6.32.28,9.48.41.81.04,1.63.07,2.44.11v-23.07Z"/>
        <path class="cls-8" d="M471.29,610.09c-19.88-.33-39.76-.66-59.64-.99.16.5.25,1.05.25,1.66v23.52c7.39.32,14.77.65,22.16.97-.07,46.16-.14,92.33-.22,138.49h34.7c-.13-45.66-.27-91.34-.4-137v-1.17c12.04.92,24.08,1.83,36.12,2.74,2.76.12,5.52.24,8.28.36.14-3.9.29-7.81.43-11.71v-16.18c-13.89-.23-27.79-.46-41.68-.69Z"/>
        <path class="cls-8" d="M131.62,622.07v-17.18c0-.15.01-.3.02-.44-8.97-.15-17.94-.3-26.91-.45,0,.13.02.25.02.38v16.52c8.96.39,17.91.78,26.87,1.17Z"/>
      </g>
      <g>
        <rect class="cls-4" x="27.85" y="643.13" width="921.32" height="140.05"/>
        <path class="cls-8" d="M152.29,773.91h-33.1l-53.44-92.93h-.76c1.06,16.41,1.6,28.12,1.6,35.12v57.81h-23.27v-122.84h32.85l53.35,92h.59c-.84-15.96-1.26-27.25-1.26-33.86v-58.14h23.44v122.84Z"/>
        <path class="cls-8" d="M233.17,775.59c-15.12,0-26.94-4.17-35.46-12.52-8.51-8.35-12.77-20.17-12.77-35.46s3.93-27.91,11.81-36.51c7.87-8.6,18.75-12.9,32.64-12.9s23.61,3.78,31,11.34,11.09,18.01,11.09,31.34v12.44h-60.58c.28,7.28,2.44,12.97,6.47,17.06,4.03,4.09,9.69,6.13,16.97,6.13,5.66,0,11.01-.59,16.05-1.76,5.04-1.18,10.31-3.05,15.8-5.63v19.83c-4.48,2.24-9.27,3.91-14.37,5-5.1,1.09-11.31,1.64-18.65,1.64ZM229.56,696.44c-5.43,0-9.69,1.72-12.77,5.17-3.08,3.45-4.85,8.33-5.29,14.66h35.96c-.11-6.33-1.76-11.22-4.96-14.66-3.19-3.44-7.51-5.17-12.94-5.17Z"/>
        <path class="cls-8" d="M321.02,725.93l-30.25-45.96h29.07l18.23,29.91,18.4-29.91h29.07l-30.58,45.96,32.01,47.98h-29.16l-19.75-32.18-19.83,32.18h-29.07l31.84-47.98Z"/>
        <path class="cls-8" d="M567.7,704.93h48.73v63.69c-7.9,2.58-15.33,4.38-22.31,5.42s-14.1,1.55-21.38,1.55c-18.54,0-32.7-5.45-42.47-16.34-9.78-10.89-14.66-26.54-14.66-46.93s5.67-35.29,17.01-46.38c11.34-11.09,27.07-16.64,47.18-16.64,12.6,0,24.76,2.52,36.47,7.56l-8.65,20.84c-8.96-4.48-18.29-6.72-27.98-6.72-11.26,0-20.28,3.78-27.06,11.34-6.78,7.56-10.17,17.73-10.17,30.5s2.73,23.51,8.19,30.54c5.46,7.03,13.4,10.54,23.82,10.54,5.43,0,10.95-.56,16.55-1.68v-25.63h-23.27v-21.68Z"/>
        <path class="cls-8" d="M695.64,775.59c-15.12,0-26.94-4.17-35.46-12.52-8.51-8.35-12.77-20.17-12.77-35.46s3.93-27.91,11.81-36.51c7.87-8.6,18.75-12.9,32.64-12.9s23.61,3.78,31,11.34,11.09,18.01,11.09,31.34v12.44h-60.58c.28,7.28,2.44,12.97,6.47,17.06,4.03,4.09,9.69,6.13,16.97,6.13,5.66,0,11.01-.59,16.05-1.76,5.04-1.18,10.31-3.05,15.8-5.63v19.83c-4.48,2.24-9.27,3.91-14.37,5-5.1,1.09-11.31,1.64-18.65,1.64ZM692.03,696.44c-5.43,0-9.69,1.72-12.77,5.17-3.08,3.45-4.85,8.33-5.29,14.66h35.96c-.11-6.33-1.76-11.22-4.96-14.66-3.19-3.44-7.51-5.17-12.94-5.17Z"/>
        <path class="cls-8" d="M850.96,773.91h-25.63v-54.87c0-6.78-1.21-11.86-3.61-15.25-2.41-3.39-6.25-5.08-11.51-5.08-7.17,0-12.35,2.39-15.54,7.18-3.19,4.79-4.79,12.73-4.79,23.82v44.2h-25.63v-93.94h19.58l3.44,12.01h1.43c2.86-4.54,6.79-7.97,11.81-10.29,5.01-2.32,10.71-3.49,17.1-3.49,10.92,0,19.21,2.96,24.87,8.86,5.66,5.91,8.49,14.44,8.49,25.58v61.25Z"/>
      </g>
    </g>
    <g>
      <ellipse class="cls-2" cx="462.5" cy="283.02" rx="278.61" ry="272.32"/>
      <path class="cls-7" d="M436.62,146.31c-.07-.48-.14-.96-.21-1.44"/>
      <path class="cls-9" d="M436.62,146.31c.92-.17,1.85-.33,2.78-.49"/>
      <circle class="cls-8" cx="458.1" cy="10.69" r="10.69"/>
      <circle class="cls-8" cx="578.85" cy="37.11" r="10.69"/>
      <circle class="cls-8" cx="665.64" cy="103.77" r="10.69"/>
      <circle class="cls-8" cx="731.05" cy="218.24" r="10.69"/>
      <circle class="cls-8" cx="731.05" cy="341.51" r="10.69"/>
      <circle class="cls-8" cx="682" cy="452.2" r="10.69"/>
      <circle class="cls-8" cx="585.14" cy="530.18" r="10.69"/>
      <circle class="cls-8" cx="348.67" cy="32.08" r="10.69"/>
      <circle class="cls-8" cx="256.84" cy="97.48" r="10.69"/>
      <circle class="cls-8" cx="196.47" cy="211.95" r="10.69"/>
      <circle class="cls-8" cx="192.69" cy="335.22" r="10.69"/>
      <circle class="cls-8" cx="240.49" cy="445.91" r="10.69"/>
      <circle class="cls-8" cx="331.06" cy="523.89" r="10.69"/>
      <g>
        <line class="cls-6" x1="650.55" y1="210.69" x2="630.42" y2="273.58"/>
        <g>
          <circle class="cls-3" cx="461.87" cy="284.9" r="141.51"/>
          <line class="cls-6" x1="392.06" y1="379.87" x2="452.81" y2="287.73"/>
          <path class="cls-6" d="M276.97,343.25c62.69-19.25,121.03-38.25,174.54-56.43"/>
          <path class="cls-6" d="M452.36,281.98c-12.43-6.22-25.62-13.59-39.22-22.35-21.93-14.12-40.41-28.93-55.7-42.88"/>
          <path class="cls-6" d="M270.1,261.46c2.99.51,5.99,1.02,9,1.52,61.5,10.3,119.39,17.74,172.96,23.1"/>
          <path class="cls-6" d="M422.61,469.24c3.74-16.56,7.36-33.77,10.77-51.61,9.12-47.66,15.28-91.71,19.44-131.16"/>
          <path class="cls-6" d="M455.11,277.22c-29.68-31.53-61.65-64.14-95.96-97.46-12.71-12.34-25.33-24.37-37.83-36.11"/>
          <path class="cls-6" d="M455.8,277.18c-13.29-38.67-26.5-77.97-39.6-117.91-4.78-14.56-9.49-29.07-14.15-43.52"/>
          <path class="cls-6" d="M460.1,276.72c-.84-43.15-.43-89.69,1.84-139.22.72-15.64,1.59-31,2.61-46.08"/>
          <line class="cls-6" x1="463.93" y1="277.92" x2="527.28" y2="130.19"/>
          <path class="cls-6" d="M463.14,492c-.28-4.46-.55-8.94-.81-13.45-3.99-69.03-4.92-132.59-4.09-189.57"/>
          <line class="cls-6" x1="485.49" y1="372.7" x2="458.38" y2="288.93"/>
          <path class="cls-6" d="M599.7,416.25c-17.34-17.36-35.35-34.99-54.02-52.84-27.64-26.43-54.73-51.4-81.06-74.95"/>
          <path class="cls-6" d="M637.98,335.13c-7.95-2.66-16.02-5.29-24.21-7.88-54.32-17.2-104.77-29.91-149.95-39.4"/>
          <path class="cls-6" d="M628.54,274.27c-7.01-.09-14.12-.11-21.33-.06-52.86.38-100.14,4.63-140.54,10.28"/>
          <path class="cls-6" d="M614.53,170.81c-10.29,7.07-20.68,14.31-31.16,21.75-42.19,29.92-80.82,59.27-115.91,87.34"/>
          <line class="cls-6" x1="464.42" y1="277.57" x2="542.46" y2="199.53"/>
          <line class="cls-6" x1="455.51" y1="277.53" x2="446.78" y2="190.56"/>
          <path class="cls-5" d="M568.42,337.56c-13.26-4.16-27.45-9.34-42.28-15.83-23.9-10.46-44.49-22.14-61.81-33.49"/>
          <line class="cls-6" x1="320.99" y1="144.02" x2="348.67" y2="32.08"/>
          <line class="cls-6" x1="682" y1="452.2" x2="637.97" y2="335.22"/>
          <line class="cls-6" x1="271.94" y1="345.28" x2="192.69" y2="335.22"/>
          <line class="cls-6" x1="614.07" y1="170.44" x2="687.03" y2="170.44"/>
          <line class="cls-6" x1="637.97" y1="335.22" x2="731.05" y2="341.51"/>
          <line class="cls-6" x1="422.88" y1="469.81" x2="458.1" y2="559.11"/>
          <line class="cls-6" x1="422.88" y1="469.81" x2="331.06" y2="523.89"/>
          <line class="cls-6" x1="271.94" y1="345.28" x2="240.49" y2="445.91"/>
          <line class="cls-6" x1="196.47" y1="211.95" x2="270.68" y2="261"/>
          <line class="cls-6" x1="266.91" y1="258.49" x2="320.99" y2="144.02"/>
          <line class="cls-6" x1="271.31" y1="344.65" x2="421.62" y2="471.06"/>
          <line class="cls-6" x1="266.91" y1="261" x2="271.94" y2="344.02"/>
          <line class="cls-6" x1="256.84" y1="97.48" x2="320.99" y2="144.02"/>
          <line class="cls-6" x1="458.1" y1="10.69" x2="320.99" y2="144.02"/>
          <line class="cls-6" x1="578.85" y1="37.11" x2="527.28" y2="128.93"/>
          <line class="cls-6" x1="527.28" y1="128.93" x2="665.64" y2="103.77"/>
          <line class="cls-6" x1="637.97" y1="335.22" x2="731.05" y2="218.24"/>
          <line class="cls-6" x1="585.14" y1="530.18" x2="600.24" y2="415.72"/>
          <line class="cls-6" x1="552.44" y1="476.1" x2="463.13" y2="492.45"/>
          <line class="cls-6" x1="464.39" y1="93.71" x2="519.73" y2="48.43"/>
          <line class="cls-6" x1="401.5" y1="115.09" x2="390.17" y2="47.17"/>
        </g>
      </g>
      <circle class="cls-8" cx="390.17" cy="48.43" r="11.01"/>
      <circle class="cls-8" cx="457.17" cy="557.4" r="10.69"/>
      <circle class="cls-1" cx="459.56" cy="283.25" r="8.37"/>
      <circle class="cls-8" cx="402.89" cy="115.86" r="11.01"/>
      <circle class="cls-8" cx="465.64" cy="93.55" r="11.01"/>
      <circle class="cls-8" cx="520.03" cy="47.53" r="11.01"/>
      <circle class="cls-8" cx="528.39" cy="127.02" r="11.01"/>
      <circle class="cls-8" cx="615.1" cy="170.3" r="11.01"/>
      <circle class="cls-8" cx="691.8" cy="170.3" r="11.01"/>
      <circle class="cls-8" cx="651.36" cy="207.95" r="11.01"/>
      <circle class="cls-8" cx="630.44" cy="273.49" r="11.01"/>
      <circle class="cls-8" cx="684.83" cy="276.28" r="11.01"/>
      <circle class="cls-8" cx="640.2" cy="337.63" r="11.01"/>
      <circle class="cls-8" cx="600.04" cy="419.07" r="11.01"/>
      <circle class="cls-8" cx="556.81" cy="474.85" r="11.01"/>
      <circle class="cls-8" cx="464.77" cy="491.58" r="11.01"/>
      <circle class="cls-8" cx="421.54" cy="470.66" r="11.01"/>
      <circle class="cls-8" cx="347.64" cy="407.91" r="11.01"/>
      <circle class="cls-8" cx="271.24" cy="345.88" r="11.01"/>
      <circle class="cls-8" cx="267.05" cy="259.42" r="11.01"/>
      <circle class="cls-8" cx="321.21" cy="143.85" r="11.01"/>
    </g>
  </g>
</svg>