<?xml version="1.0" encoding="UTF-8"?>
<svg id="Layer_2" xmlns="http://www.w3.org/2000/svg" viewBox="0 0 1899.97 408.48">
  <defs>
    <style>
      .cls-1, .cls-2, .cls-3 {
        fill: #fff;
      }

      .cls-4, .cls-5, .cls-6, .cls-7, .cls-8 {
        fill: none;
      }

      .cls-4, .cls-6, .cls-7, .cls-8 {
        stroke: #fff;
      }

      .cls-4, .cls-6, .cls-7, .cls-2, .cls-3 {
        stroke-miterlimit: 10;
      }

      .cls-4, .cls-6, .cls-8 {
        stroke-width: 5px;
      }

      .cls-6, .cls-7, .cls-8, .cls-3 {
        stroke-linecap: round;
      }

      .cls-7 {
        stroke-width: 6px;
      }

      .cls-8 {
        stroke-dasharray: 10;
        stroke-linejoin: round;
      }

      .cls-2, .cls-3 {
        stroke: #72858c;
        stroke-width: 3px;
      }
    </style>
  </defs>
  <g id="Layer_1-2" data-name="Layer_1">
    <g>
      <g>
        <path class="cls-1" d="M479.8,3.67c0-1,.15-1.9.42-2.7-7.44-.12-14.88-.25-22.32-.37v22.89c7.31.32,14.62.64,21.94.96-.02-.24-.04-.49-.04-.74V3.67Z"/>
        <path class="cls-1" d="M441.82.33c-6.69-.11-13.38-.22-20.07-.33.76,7.35,1.56,14.68,2.32,22.02,5.92.26,11.83.52,17.75.77V.33Z"/>
        <path class="cls-1" d="M495.76,25.14c8.2.36,16.41.72,24.61,1.07V2.89c0-.44.04-.85.09-1.25-8.31-.14-16.62-.28-24.93-.41.22.74.35,1.55.35,2.45v20.03c0,.51-.05.98-.12,1.44Z"/>
        <path class="cls-1" d="M568.81,28.32V3.3c0-.29.02-.58.04-.86-10.82-.18-21.63-.36-32.45-.54.03.32.05.65.05.99v24.02c10.78.47,21.57.94,32.35,1.41Z"/>
        <path class="cls-1" d="M684.62,33.37V5.62c0-.44.04-.85.09-1.25-13.97-.23-27.94-.46-41.91-.7,0,.14.02.28.02.43v27.45c13.93.61,27.87,1.21,41.8,1.82Z"/>
        <path class="cls-1" d="M742.5,35.89V7.14c0-.64.06-1.25.18-1.81-14.01-.23-28.02-.47-42.03-.7.03.32.05.65.05.99v28.45c13.93.61,27.87,1.21,41.8,1.82Z"/>
        <path class="cls-1" d="M815.61,39.08V8.67c0-.77.1-1.47.26-2.12-19.14-.32-38.29-.64-57.43-.95.09.49.14,1,.14,1.55v29.45c19.01.83,38.02,1.66,57.03,2.49Z"/>
        <path class="cls-1" d="M890.25,42.33V10.19c0-.88.12-1.67.33-2.4-19.69-.33-39.39-.65-59.08-.98.12.58.19,1.2.19,1.86v31.11c19.52.85,39.04,1.7,58.55,2.55Z"/>
        <path class="cls-1" d="M970.98,45.85V13.24c0-1.62.39-2.98,1.05-4.1-21.99-.37-43.98-.73-65.97-1.1.17.66.27,1.37.27,2.15v32.84c21.55.94,43.1,1.88,64.65,2.82Z"/>
        <path class="cls-1" d="M1047.14,13.24c0-1.06.17-2,.47-2.84-20.5-.34-40.99-.68-61.49-1.02.58,1.07.93,2.35.93,3.86v33.31c13.84.6,27.68,1.21,41.52,1.81,4.92.23,9.84.43,14.76.64,1.27.06,2.53.11,3.8.17V13.24Z"/>
        <path class="cls-1" d="M1155.72,12.19c-30.96-.51-61.92-1.03-92.89-1.54.25.78.38,1.64.38,2.59v36.64c11.5.5,23.01,1.01,34.51,1.51-.11,71.89-.23,143.79-.34,215.68h54.04c-.21-71.11-.42-142.25-.63-213.36v-1.82c18.75,1.43,37.5,2.85,56.26,4.26,4.29.19,8.6.37,12.9.56.23-6.08.45-12.16.68-18.24V13.27c-21.63-.35-43.28-.72-64.91-1.08Z"/>
        <path class="cls-1" d="M626.74,30.85V4.1c0-.24.02-.46.03-.69-13.97-.23-27.94-.46-41.91-.7.01.2.03.39.03.59v25.73c13.95.61,27.9,1.22,41.84,1.82Z"/>
      </g>
      <g>
        <rect class="cls-5" x="465.13" y="63.65" width="1434.84" height="218.11"/>
        <path class="cls-1" d="M658.92,267.32h-51.56l-83.22-144.72h-1.18c1.66,25.56,2.49,43.79,2.49,54.7v90.03h-36.25V76.01h51.16l83.09,143.28h.92c-1.31-24.86-1.96-42.44-1.96-52.73v-90.55h36.51v191.31Z"/>
        <path class="cls-1" d="M784.89,269.93c-23.55,0-41.96-6.5-55.22-19.5-13.26-13-19.89-31.4-19.89-55.22s6.13-43.46,18.38-56.86c12.26-13.39,29.2-20.09,50.84-20.09s36.77,5.89,48.29,17.67c11.51,11.78,17.27,28.05,17.27,48.81v19.37h-94.35c.44,11.34,3.79,20.2,10.08,26.56,6.28,6.37,15.09,9.55,26.43,9.55,8.81,0,17.14-.92,24.99-2.75,7.85-1.83,16.05-4.75,24.6-8.77v30.88c-6.98,3.49-14.44,6.08-22.38,7.79-7.94,1.7-17.62,2.55-29.05,2.55ZM779.26,146.67c-8.46,0-15.09,2.68-19.89,8.05-4.8,5.37-7.55,12.98-8.24,22.83h56.01c-.18-9.86-2.75-17.47-7.72-22.83-4.97-5.36-11.69-8.05-20.15-8.05Z"/>
        <path class="cls-1" d="M921.71,192.6l-47.11-71.58h45.28l28.39,46.58,28.66-46.58h45.27l-47.63,71.58,49.85,74.72h-45.41l-30.75-50.12-30.88,50.12h-45.28l49.59-74.72Z"/>
        <path class="cls-1" d="M1305.89,159.88h75.89v99.19c-12.3,4.01-23.88,6.83-34.74,8.44-10.86,1.61-21.96,2.42-33.3,2.42-28.88,0-50.92-8.48-66.15-25.45-15.22-16.97-22.83-41.33-22.83-73.08s8.83-54.96,26.5-72.23c17.67-17.27,42.16-25.91,73.47-25.91,19.63,0,38.56,3.93,56.79,11.78l-13.48,32.45c-13.96-6.98-28.48-10.47-43.57-10.47-17.53,0-31.58,5.89-42.13,17.67-10.56,11.78-15.83,27.61-15.83,47.5s4.25,36.62,12.76,47.57c8.5,10.95,20.87,16.42,37.1,16.42,8.46,0,17.05-.87,25.78-2.62v-39.91h-36.25v-33.76Z"/>
        <path class="cls-1" d="M1505.13,269.93c-23.55,0-41.96-6.5-55.22-19.5-13.26-13-19.89-31.4-19.89-55.22s6.13-43.46,18.38-56.86c12.26-13.39,29.2-20.09,50.84-20.09s36.77,5.89,48.29,17.67c11.51,11.78,17.27,28.05,17.27,48.81v19.37h-94.35c.44,11.34,3.79,20.2,10.08,26.56,6.28,6.37,15.09,9.55,26.43,9.55,8.81,0,17.14-.92,24.99-2.75,7.85-1.83,16.05-4.75,24.6-8.77v30.88c-6.98,3.49-14.44,6.08-22.38,7.79-7.94,1.7-17.62,2.55-29.05,2.55ZM1499.5,146.67c-8.46,0-15.09,2.68-19.89,8.05-4.8,5.37-7.55,12.98-8.24,22.83h56.01c-.18-9.86-2.75-17.47-7.72-22.83-4.97-5.36-11.69-8.05-20.15-8.05Z"/>
        <path class="cls-1" d="M1747.03,267.32h-39.91v-85.45c0-10.55-1.88-18.47-5.63-23.75-3.75-5.28-9.73-7.92-17.93-7.92-11.17,0-19.24,3.73-24.21,11.19-4.97,7.46-7.46,19.82-7.46,37.1v68.83h-39.91V121.02h30.49l5.37,18.71h2.22c4.45-7.07,10.58-12.41,18.38-16.03,7.81-3.62,16.68-5.43,26.63-5.43,17.01,0,29.92,4.6,38.73,13.8,8.81,9.21,13.22,22.49,13.22,39.84v95.39Z"/>
      </g>
      <g>
        <path class="cls-1" d="M540.96,375.9h-9.1l-37.46-59.85h-.38c.5,7.02.75,13.46.75,19.32v40.54h-7.36v-71.32h9l37.37,59.61h.38c-.06-.88-.2-3.7-.42-8.46-.22-4.76-.3-8.17-.23-10.22v-40.93h7.46v71.32Z"/>
        <path class="cls-1" d="M586.59,376.88c-7.6,0-13.59-2.41-17.98-7.22-4.39-4.81-6.59-11.5-6.59-20.05s2.04-15.46,6.12-20.54c4.08-5.07,9.56-7.61,16.43-7.61,6.44,0,11.54,2.2,15.29,6.61,3.75,4.41,5.63,10.22,5.63,17.44v5.12h-35.4c.16,6.28,1.68,11.04,4.57,14.29,2.89,3.25,6.96,4.88,12.21,4.88,5.53,0,11-1.2,16.41-3.61v7.22c-2.75,1.24-5.35,2.12-7.81,2.66s-5.42.8-8.88.8ZM584.48,328.24c-4.13,0-7.42,1.4-9.87,4.19-2.45,2.8-3.9,6.67-4.34,11.61h26.87c0-5.1-1.09-9.02-3.28-11.73-2.19-2.72-5.31-4.07-9.38-4.07Z"/>
        <path class="cls-1" d="M637.38,348.54l-17.86-26.1h8.86l13.55,20.49,13.5-20.49h8.77l-17.86,26.1,18.8,27.37h-8.81l-14.4-21.66-14.54,21.66h-8.81l18.8-27.37Z"/>
        <path class="cls-1" d="M698.15,370.19c1.38,0,2.7-.1,3.99-.32,1.28-.21,2.3-.43,3.05-.66v6.2c-.84.42-2.09.77-3.73,1.05-1.64.28-3.12.41-4.43.41-9.94,0-14.91-5.45-14.91-16.34v-31.81h-7.36v-3.9l7.36-3.37,3.28-11.41h4.5v12.39h14.91v6.29h-14.91v31.46c0,3.22.73,5.69,2.2,7.41,1.47,1.72,3.48,2.59,6.05,2.59Z"/>
        <path class="cls-1" d="M784.2,338.54h23.3v34.68c-3.63,1.2-7.32,2.11-11.07,2.73s-8.1.93-13.04.93c-10.38,0-18.46-3.21-24.24-9.63-5.78-6.42-8.67-15.42-8.67-27,0-7.41,1.43-13.91,4.29-19.49,2.86-5.58,6.98-9.84,12.36-12.78,5.38-2.94,11.67-4.41,18.9-4.41s14.13,1.4,20.44,4.2l-3.09,7.32c-6.19-2.73-12.14-4.1-17.86-4.1-8.35,0-14.86,2.59-19.55,7.76-4.69,5.17-7.03,12.34-7.03,21.51,0,9.63,2.26,16.93,6.78,21.9,4.52,4.98,11.15,7.46,19.9,7.46,4.75,0,9.39-.57,13.93-1.71v-21.95h-15.33v-7.42Z"/>
        <path class="cls-1" d="M850.74,376.88c-7.6,0-13.59-2.41-17.98-7.22-4.39-4.81-6.59-11.5-6.59-20.05s2.04-15.46,6.12-20.54c4.08-5.07,9.56-7.61,16.43-7.61,6.44,0,11.54,2.2,15.29,6.61,3.75,4.41,5.63,10.22,5.63,17.44v5.12h-35.4c.16,6.28,1.68,11.04,4.57,14.29,2.89,3.25,6.96,4.88,12.21,4.88,5.53,0,11-1.2,16.41-3.61v7.22c-2.75,1.24-5.35,2.12-7.81,2.66s-5.42.8-8.88.8ZM848.63,328.24c-4.13,0-7.42,1.4-9.87,4.19-2.45,2.8-3.9,6.67-4.34,11.61h26.87c0-5.1-1.09-9.02-3.28-11.73-2.19-2.72-5.31-4.07-9.38-4.07Z"/>
        <path class="cls-1" d="M924.32,375.9v-34.59c0-4.36-.95-7.61-2.86-9.76-1.91-2.15-4.89-3.22-8.96-3.22-5.38,0-9.32,1.51-11.82,4.54-2.5,3.02-3.75,8.02-3.75,14.98v28.05h-7.78v-53.46h6.33l1.27,7.32h.38c1.59-2.63,3.83-4.67,6.71-6.12,2.88-1.45,6.08-2.17,9.61-2.17,6.19,0,10.85,1.55,13.97,4.66,3.12,3.11,4.69,8.07,4.69,14.9v34.88h-7.78Z"/>
        <path class="cls-1" d="M976.04,376.88c-7.6,0-13.59-2.41-17.98-7.22-4.39-4.81-6.59-11.5-6.59-20.05s2.04-15.46,6.12-20.54c4.08-5.07,9.56-7.61,16.43-7.61,6.44,0,11.54,2.2,15.29,6.61,3.75,4.41,5.63,10.22,5.63,17.44v5.12h-35.4c.16,6.28,1.68,11.04,4.57,14.29,2.89,3.25,6.96,4.88,12.21,4.88,5.53,0,11-1.2,16.41-3.61v7.22c-2.75,1.24-5.35,2.12-7.81,2.66s-5.42.8-8.88.8ZM973.93,328.24c-4.13,0-7.42,1.4-9.87,4.19-2.45,2.8-3.9,6.67-4.34,11.61h26.87c0-5.1-1.09-9.02-3.28-11.73-2.19-2.72-5.31-4.07-9.38-4.07Z"/>
        <path class="cls-1" d="M1037.89,321.46c2.28,0,4.33.2,6.14.59l-1.08,7.51c-2.13-.49-4-.73-5.63-.73-4.16,0-7.71,1.76-10.67,5.27s-4.43,7.89-4.43,13.12v28.68h-7.78v-53.46h6.42l.89,9.9h.38c1.91-3.48,4.2-6.16,6.89-8.05,2.69-1.89,5.64-2.83,8.86-2.83Z"/>
        <path class="cls-1" d="M1091.49,375.9l-1.55-7.61h-.38c-2.56,3.35-5.12,5.62-7.67,6.81-2.55,1.19-5.73,1.78-9.54,1.78-5.1,0-9.09-1.37-11.98-4.1-2.89-2.73-4.34-6.62-4.34-11.66,0-10.8,8.3-16.46,24.9-16.98l8.72-.29v-3.32c0-4.19-.87-7.29-2.6-9.29-1.73-2-4.51-3-8.32-3-4.28,0-9.13,1.37-14.54,4.1l-2.39-6.2c2.53-1.43,5.31-2.55,8.32-3.37,3.02-.81,6.04-1.22,9.07-1.22,6.13,0,10.67,1.41,13.62,4.24,2.95,2.83,4.43,7.37,4.43,13.61v36.49h-5.77ZM1073.91,370.19c4.84,0,8.65-1.38,11.42-4.15s4.15-6.63,4.15-11.61v-4.83l-7.78.34c-6.19.23-10.65,1.23-13.39,3-2.74,1.77-4.1,4.53-4.1,8.27,0,2.93.85,5.15,2.55,6.68,1.7,1.53,4.09,2.29,7.15,2.29Z"/>
        <path class="cls-1" d="M1136.13,370.19c1.38,0,2.7-.1,3.99-.32,1.28-.21,2.3-.43,3.05-.66v6.2c-.84.42-2.09.77-3.73,1.05-1.64.28-3.12.41-4.43.41-9.94,0-14.91-5.45-14.91-16.34v-31.81h-7.36v-3.9l7.36-3.37,3.28-11.41h4.5v12.39h14.91v6.29h-14.91v31.46c0,3.22.73,5.69,2.2,7.41,1.47,1.72,3.48,2.59,6.05,2.59Z"/>
        <path class="cls-1" d="M1159.02,307.95c0-1.85.44-3.21,1.31-4.07.87-.86,1.97-1.29,3.28-1.29s2.33.44,3.24,1.32c.91.88,1.36,2.23,1.36,4.05s-.45,3.18-1.36,4.07c-.91.9-1.99,1.34-3.24,1.34-1.31,0-2.41-.45-3.28-1.34-.88-.89-1.31-2.25-1.31-4.07ZM1167.46,375.9h-7.78v-53.46h7.78v53.46Z"/>
        <path class="cls-1" d="M1234.56,349.12c0,8.72-2.11,15.52-6.33,20.42-4.22,4.89-10.05,7.34-17.49,7.34-4.6,0-8.67-1.12-12.24-3.37-3.56-2.24-6.31-5.46-8.25-9.66s-2.91-9.11-2.91-14.73c0-8.71,2.09-15.5,6.28-20.37,4.19-4.86,10-7.29,17.44-7.29s12.9,2.49,17.14,7.46c4.24,4.98,6.35,11.71,6.35,20.2ZM1195.41,349.12c0,6.83,1.31,12.03,3.94,15.61,2.63,3.58,6.49,5.37,11.58,5.37s8.96-1.78,11.6-5.34,3.96-8.77,3.96-15.63-1.32-11.96-3.96-15.49c-2.64-3.53-6.54-5.29-11.7-5.29s-8.94,1.74-11.54,5.22c-2.59,3.48-3.89,8.67-3.89,15.56Z"/>
        <path class="cls-1" d="M1289.62,375.9v-34.59c0-4.36-.95-7.61-2.86-9.76-1.91-2.15-4.89-3.22-8.96-3.22-5.38,0-9.32,1.51-11.82,4.54-2.5,3.02-3.75,8.02-3.75,14.98v28.05h-7.78v-53.46h6.33l1.27,7.32h.38c1.59-2.63,3.83-4.67,6.71-6.12,2.88-1.45,6.08-2.17,9.61-2.17,6.19,0,10.85,1.55,13.97,4.66,3.12,3.11,4.69,8.07,4.69,14.9v34.88h-7.78Z"/>
        <path class="cls-1" d="M1373.09,375.9h-7.97v-63.95h-21.71v-7.37h51.39v7.37h-21.71v63.95Z"/>
        <path class="cls-1" d="M1433.63,321.46c2.28,0,4.33.2,6.14.59l-1.08,7.51c-2.13-.49-4-.73-5.63-.73-4.16,0-7.71,1.76-10.67,5.27s-4.43,7.89-4.43,13.12v28.68h-7.78v-53.46h6.42l.89,9.9h.38c1.91-3.48,4.2-6.16,6.89-8.05,2.69-1.89,5.64-2.83,8.86-2.83Z"/>
        <path class="cls-1" d="M1454.97,307.95c0-1.85.44-3.21,1.31-4.07.87-.86,1.97-1.29,3.28-1.29s2.33.44,3.24,1.32c.91.88,1.36,2.23,1.36,4.05s-.45,3.18-1.36,4.07c-.91.9-1.99,1.34-3.24,1.34-1.31,0-2.41-.45-3.28-1.34-.88-.89-1.31-2.25-1.31-4.07ZM1463.41,375.9h-7.78v-53.46h7.78v53.46Z"/>
        <path class="cls-1" d="M1528.21,322.44v5.12l-9.52,1.17c.88,1.14,1.66,2.63,2.34,4.46.69,1.84,1.03,3.91,1.03,6.22,0,5.24-1.72,9.41-5.16,12.54-3.44,3.12-8.16,4.68-14.16,4.68-1.53,0-2.97-.13-4.31-.39-3.31,1.82-4.97,4.11-4.97,6.88,0,1.46.58,2.55,1.73,3.24,1.16.7,3.14,1.05,5.96,1.05h9.1c5.56,0,9.84,1.22,12.82,3.66,2.99,2.44,4.48,5.98,4.48,10.63,0,5.92-2.28,10.43-6.85,13.54-4.56,3.1-11.22,4.66-19.97,4.66-6.72,0-11.9-1.3-15.54-3.9-3.64-2.6-5.46-6.28-5.46-11.02,0-3.25,1-6.07,3-8.44,2-2.37,4.81-3.98,8.44-4.83-1.31-.62-2.42-1.58-3.31-2.88-.89-1.3-1.34-2.81-1.34-4.54,0-1.95.5-3.66,1.5-5.12,1-1.46,2.58-2.88,4.74-4.24-2.66-1.14-4.82-3.07-6.49-5.81-1.67-2.73-2.51-5.85-2.51-9.37,0-5.85,1.69-10.37,5.06-13.54s8.16-4.76,14.35-4.76c2.69,0,5.11.33,7.27.98h17.77ZM1487.23,384.88c0,2.89,1.17,5.09,3.52,6.59,2.34,1.5,5.7,2.24,10.08,2.24,6.53,0,11.37-1.02,14.51-3.05,3.14-2.03,4.71-4.79,4.71-8.27,0-2.9-.86-4.9-2.58-6.02-1.72-1.12-4.96-1.68-9.71-1.68h-9.33c-3.53,0-6.28.88-8.25,2.63-1.97,1.76-2.95,4.28-2.95,7.56ZM1491.45,339.56c0,3.74,1.02,6.57,3.05,8.49,2.03,1.92,4.86,2.88,8.49,2.88,7.6,0,11.39-3.84,11.39-11.51s-3.84-12.05-11.54-12.05c-3.66,0-6.47,1.02-8.44,3.07-1.97,2.05-2.95,5.09-2.95,9.12Z"/>
        <path class="cls-1" d="M1587.06,322.44v5.12l-9.52,1.17c.88,1.14,1.66,2.63,2.34,4.46.69,1.84,1.03,3.91,1.03,6.22,0,5.24-1.72,9.41-5.16,12.54-3.44,3.12-8.16,4.68-14.16,4.68-1.53,0-2.97-.13-4.31-.39-3.31,1.82-4.97,4.11-4.97,6.88,0,1.46.58,2.55,1.73,3.24,1.16.7,3.14,1.05,5.96,1.05h9.1c5.56,0,9.84,1.22,12.82,3.66,2.99,2.44,4.48,5.98,4.48,10.63,0,5.92-2.28,10.43-6.85,13.54-4.56,3.1-11.22,4.66-19.97,4.66-6.72,0-11.9-1.3-15.54-3.9-3.64-2.6-5.46-6.28-5.46-11.02,0-3.25,1-6.07,3-8.44,2-2.37,4.81-3.98,8.44-4.83-1.31-.62-2.42-1.58-3.31-2.88-.89-1.3-1.34-2.81-1.34-4.54,0-1.95.5-3.66,1.5-5.12,1-1.46,2.58-2.88,4.74-4.24-2.66-1.14-4.82-3.07-6.49-5.81-1.67-2.73-2.51-5.85-2.51-9.37,0-5.85,1.69-10.37,5.06-13.54s8.16-4.76,14.35-4.76c2.69,0,5.11.33,7.27.98h17.77ZM1546.08,384.88c0,2.89,1.17,5.09,3.52,6.59,2.34,1.5,5.7,2.24,10.08,2.24,6.53,0,11.37-1.02,14.51-3.05,3.14-2.03,4.71-4.79,4.71-8.27,0-2.9-.86-4.9-2.58-6.02-1.72-1.12-4.96-1.68-9.71-1.68h-9.33c-3.53,0-6.28.88-8.25,2.63-1.97,1.76-2.95,4.28-2.95,7.56ZM1550.3,339.56c0,3.74,1.02,6.57,3.05,8.49,2.03,1.92,4.86,2.88,8.49,2.88,7.6,0,11.39-3.84,11.39-11.51s-3.84-12.05-11.54-12.05c-3.66,0-6.47,1.02-8.44,3.07-1.97,2.05-2.95,5.09-2.95,9.12Z"/>
        <path class="cls-1" d="M1625.57,376.88c-7.6,0-13.59-2.41-17.98-7.22-4.39-4.81-6.59-11.5-6.59-20.05s2.04-15.46,6.12-20.54c4.08-5.07,9.56-7.61,16.43-7.61,6.44,0,11.54,2.2,15.29,6.61,3.75,4.41,5.63,10.22,5.63,17.44v5.12h-35.4c.16,6.28,1.68,11.04,4.57,14.29,2.89,3.25,6.96,4.88,12.21,4.88,5.53,0,11-1.2,16.41-3.61v7.22c-2.75,1.24-5.35,2.12-7.81,2.66s-5.42.8-8.88.8ZM1623.46,328.24c-4.13,0-7.42,1.4-9.87,4.19-2.45,2.8-3.9,6.67-4.34,11.61h26.87c0-5.1-1.09-9.02-3.28-11.73-2.19-2.72-5.31-4.07-9.38-4.07Z"/>
        <path class="cls-1" d="M1687.42,321.46c2.28,0,4.33.2,6.14.59l-1.08,7.51c-2.13-.49-4-.73-5.63-.73-4.16,0-7.71,1.76-10.67,5.27s-4.43,7.89-4.43,13.12v28.68h-7.78v-53.46h6.42l.89,9.9h.38c1.91-3.48,4.2-6.16,6.89-8.05,2.69-1.89,5.64-2.83,8.86-2.83Z"/>
        <path class="cls-1" d="M1742.56,361.32c0,4.98-1.78,8.81-5.34,11.51-3.56,2.7-8.57,4.05-15,4.05-6.81,0-12.13-1.12-15.94-3.37v-7.51c2.47,1.3,5.12,2.33,7.95,3.07,2.83.75,5.56,1.12,8.18,1.12,4.06,0,7.19-.67,9.38-2.02,2.19-1.35,3.28-3.41,3.28-6.17,0-2.08-.87-3.86-2.6-5.34-1.73-1.48-5.12-3.23-10.15-5.24-4.78-1.85-8.18-3.47-10.2-4.85-2.02-1.38-3.52-2.95-4.5-4.71-.98-1.76-1.48-3.85-1.48-6.29,0-4.36,1.7-7.8,5.11-10.32,3.41-2.52,8.08-3.78,14.02-3.78,5.53,0,10.94,1.17,16.22,3.51l-2.77,6.59c-5.16-2.21-9.83-3.32-14.02-3.32-3.69,0-6.47.6-8.35,1.8-1.88,1.2-2.81,2.86-2.81,4.98,0,1.43.35,2.65,1.05,3.66.7,1.01,1.84,1.97,3.4,2.88,1.56.91,4.56,2.23,9,3.95,6.09,2.31,10.21,4.63,12.35,6.98,2.14,2.34,3.21,5.28,3.21,8.83Z"/>
      </g>
    </g>
    <g>
      <ellipse class="cls-8" cx="202.3" cy="204.05" rx="199.8" ry="195.29"/>
      <path class="cls-3" d="M183.74,106.02c-.05-.34-.1-.69-.15-1.03"/>
      <path class="cls-2" d="M183.74,106.02c.66-.12,1.33-.24,1.99-.35"/>
      <circle class="cls-1" cx="199.14" cy="8.76" r="7.67"/>
      <circle class="cls-1" cx="285.74" cy="27.71" r="7.67"/>
      <circle class="cls-1" cx="347.98" cy="75.51" r="7.67"/>
      <circle class="cls-1" cx="394.88" cy="157.6" r="7.67"/>
      <circle class="cls-1" cx="394.88" cy="246" r="7.67"/>
      <circle class="cls-1" cx="359.7" cy="325.37" r="7.67"/>
      <circle class="cls-1" cx="290.25" cy="381.3" r="7.67"/>
      <circle class="cls-1" cx="120.67" cy="24.1" r="7.67"/>
      <circle class="cls-1" cx="54.82" cy="71" r="7.67"/>
      <circle class="cls-1" cx="11.52" cy="153.09" r="7.67"/>
      <circle class="cls-1" cx="8.81" cy="241.49" r="7.67"/>
      <circle class="cls-1" cx="43.09" cy="320.86" r="7.67"/>
      <circle class="cls-1" cx="108.04" cy="376.79" r="7.67"/>
      <g>
        <line class="cls-6" x1="337.15" y1="152.18" x2="322.72" y2="197.29"/>
        <g>
          <circle class="cls-4" cx="201.85" cy="205.4" r="101.48"/>
          <line class="cls-6" x1="151.79" y1="273.51" x2="195.35" y2="207.43"/>
          <path class="cls-6" d="M69.25,247.25c44.96-13.8,86.79-27.43,125.17-40.47"/>
          <path class="cls-6" d="M195.03,203.31c-8.92-4.46-18.37-9.74-28.13-16.02-15.73-10.13-28.98-20.74-39.94-30.75"/>
          <path class="cls-6" d="M64.33,188.59c2.14.37,4.3.73,6.46,1.09,44.1,7.38,85.62,12.72,124.03,16.56"/>
          <path class="cls-6" d="M173.69,337.6c2.68-11.87,5.28-24.22,7.72-37.01,6.54-34.18,10.95-65.77,13.94-94.06"/>
          <path class="cls-6" d="M197,199.9c-21.29-22.61-44.21-45.99-68.82-69.89-9.11-8.85-18.16-17.48-27.13-25.89"/>
          <path class="cls-6" d="M197.49,199.86c-9.53-27.73-19.01-55.91-28.4-84.56-3.43-10.44-6.81-20.85-10.15-31.21"/>
          <path class="cls-6" d="M200.58,199.54c-.6-30.94-.31-64.32,1.32-99.83.51-11.21,1.14-22.23,1.87-33.04"/>
          <line class="cls-6" x1="203.33" y1="200.4" x2="248.75" y2="94.46"/>
          <path class="cls-6" d="M202.76,353.92c-.2-3.2-.4-6.41-.58-9.65-2.86-49.5-3.53-95.08-2.93-135.95"/>
          <line class="cls-6" x1="218.79" y1="268.37" x2="199.34" y2="208.29"/>
          <path class="cls-6" d="M300.69,299.59c-12.44-12.45-25.35-25.09-38.74-37.89-19.82-18.95-39.24-36.86-58.13-53.75"/>
          <path class="cls-6" d="M328.14,241.43c-5.7-1.91-11.48-3.79-17.36-5.65-38.95-12.33-75.13-21.45-107.53-28.26"/>
          <path class="cls-6" d="M321.37,197.78c-5.02-.06-10.12-.08-15.29-.04-37.9.27-71.81,3.32-100.79,7.37"/>
          <path class="cls-6" d="M311.32,123.59c-7.38,5.07-14.83,10.26-22.34,15.59-30.25,21.46-57.96,42.51-83.12,62.63"/>
          <line class="cls-6" x1="203.67" y1="200.15" x2="259.64" y2="144.18"/>
          <line class="cls-6" x1="197.29" y1="200.12" x2="191.02" y2="137.75"/>
          <path class="cls-7" d="M278.25,243.16c-9.51-2.98-19.69-6.7-30.32-11.35-17.14-7.5-31.9-15.88-44.32-24.02"/>
          <line class="cls-6" x1="100.82" y1="104.38" x2="120.67" y2="24.1"/>
          <line class="cls-6" x1="359.7" y1="325.37" x2="328.13" y2="241.49"/>
          <line class="cls-6" x1="65.64" y1="248.7" x2="8.81" y2="241.49"/>
          <line class="cls-6" x1="310.99" y1="123.32" x2="363.31" y2="123.32"/>
          <line class="cls-6" x1="328.13" y1="241.49" x2="394.88" y2="246"/>
          <line class="cls-6" x1="173.88" y1="338" x2="199.14" y2="402.05"/>
          <line class="cls-6" x1="173.88" y1="338" x2="108.04" y2="376.79"/>
          <line class="cls-6" x1="65.64" y1="248.7" x2="43.09" y2="320.86"/>
          <line class="cls-6" x1="11.52" y1="153.09" x2="64.74" y2="188.27"/>
          <line class="cls-6" x1="62.03" y1="186.46" x2="100.82" y2="104.38"/>
          <line class="cls-6" x1="65.19" y1="248.25" x2="172.98" y2="338.9"/>
          <line class="cls-6" x1="62.03" y1="188.27" x2="65.64" y2="247.8"/>
          <line class="cls-6" x1="54.82" y1="71" x2="100.82" y2="104.38"/>
          <line class="cls-6" x1="199.14" y1="8.76" x2="100.82" y2="104.38"/>
          <line class="cls-6" x1="285.74" y1="27.71" x2="248.75" y2="93.55"/>
          <line class="cls-6" x1="248.75" y1="93.55" x2="347.98" y2="75.51"/>
          <line class="cls-6" x1="328.13" y1="241.49" x2="394.88" y2="157.6"/>
          <line class="cls-6" x1="290.25" y1="381.3" x2="301.07" y2="299.21"/>
          <line class="cls-6" x1="266.79" y1="342.51" x2="202.75" y2="354.24"/>
          <line class="cls-6" x1="203.65" y1="68.3" x2="243.34" y2="35.82"/>
          <line class="cls-6" x1="158.55" y1="83.63" x2="150.43" y2="34.92"/>
        </g>
      </g>
      <circle class="cls-1" cx="150.43" cy="35.82" r="7.89"/>
      <circle class="cls-1" cx="198.48" cy="400.82" r="7.67"/>
      <circle cx="200.19" cy="204.22" r="6"/>
      <circle class="cls-1" cx="159.55" cy="84.18" r="7.89"/>
      <circle class="cls-1" cx="204.55" cy="68.18" r="7.89"/>
      <circle class="cls-1" cx="243.55" cy="35.18" r="7.89"/>
      <circle class="cls-1" cx="249.55" cy="92.18" r="7.89"/>
      <circle class="cls-1" cx="311.73" cy="123.22" r="7.89"/>
      <circle class="cls-1" cx="366.73" cy="123.22" r="7.89"/>
      <circle class="cls-1" cx="337.73" cy="150.22" r="7.89"/>
      <circle class="cls-1" cx="322.73" cy="197.22" r="7.89"/>
      <circle class="cls-1" cx="361.73" cy="199.22" r="7.89"/>
      <circle class="cls-1" cx="329.73" cy="243.22" r="7.89"/>
      <circle class="cls-1" cx="300.93" cy="301.62" r="7.89"/>
      <circle class="cls-1" cx="269.93" cy="341.62" r="7.89"/>
      <circle class="cls-1" cx="203.93" cy="353.62" r="7.89"/>
      <circle class="cls-1" cx="172.93" cy="338.62" r="7.89"/>
      <circle class="cls-1" cx="119.93" cy="293.62" r="7.89"/>
      <circle class="cls-1" cx="65.14" cy="249.13" r="7.89"/>
      <circle class="cls-1" cx="62.14" cy="187.13" r="7.89"/>
      <circle class="cls-1" cx="100.98" cy="104.25" r="7.89"/>
    </g>
  </g>
</svg>