<?xml version="1.0" encoding="UTF-8"?>
<svg id="Layer_2" xmlns="http://www.w3.org/2000/svg" viewBox="0 0 949.17 843.08">
  <defs>
    <style>
      .cls-1, .cls-2, .cls-3 {
        fill: #fff;
      }

      .cls-4, .cls-5, .cls-6, .cls-7, .cls-8 {
        fill: none;
      }

      .cls-4, .cls-6, .cls-7, .cls-8 {
        stroke: #fff;
      }

      .cls-4, .cls-6, .cls-7, .cls-2, .cls-3 {
        stroke-miterlimit: 10;
      }

      .cls-4, .cls-6, .cls-8 {
        stroke-width: 5px;
      }

      .cls-6, .cls-7, .cls-8, .cls-3 {
        stroke-linecap: round;
      }

      .cls-7 {
        stroke-width: 6px;
      }

      .cls-8 {
        stroke-dasharray: 10;
        stroke-linejoin: round;
      }

      .cls-2, .cls-3 {
        stroke: #72858c;
        stroke-width: 3px;
      }
    </style>
  </defs>
  <g id="Layer_1-2" data-name="Layer_1">
    <g>
      <g>
        <path class="cls-1" d="M37.27,623.38c0-.64.1-1.22.27-1.73-4.78-.08-9.55-.16-14.33-.24v14.7c4.7.2,9.39.41,14.09.61-.01-.16-.02-.31-.02-.48v-12.86Z"/>
        <path class="cls-1" d="M12.88,621.23c-4.29-.07-8.59-.14-12.88-.21.49,4.72,1,9.43,1.49,14.14,3.8.17,7.6.33,11.4.5v-14.42Z"/>
        <path class="cls-1" d="M47.52,637.16c5.27.23,10.54.46,15.81.69v-14.97c0-.28.02-.55.06-.8-5.34-.09-10.67-.18-16.01-.27.14.48.22,1,.22,1.57v12.86c0,.32-.03.63-.08.92Z"/>
        <path class="cls-1" d="M94.43,639.21v-16.07c0-.19.01-.37.03-.55-6.95-.12-13.89-.23-20.84-.35.02.2.03.42.03.63v15.42c6.92.3,13.85.6,20.77.91Z"/>
        <path class="cls-1" d="M168.79,642.45v-17.82c0-.28.02-.55.06-.8-8.97-.15-17.94-.3-26.91-.45,0,.09.01.18.01.27v17.63c8.95.39,17.89.78,26.84,1.17Z"/>
        <path class="cls-1" d="M205.95,644.07v-18.46c0-.41.04-.8.12-1.16-9-.15-17.99-.3-26.99-.45.02.2.03.42.03.63v18.27c8.95.39,17.89.78,26.84,1.17Z"/>
        <path class="cls-1" d="M252.9,646.11v-19.53c0-.49.06-.94.17-1.36-12.29-.2-24.58-.41-36.88-.61.05.31.09.64.09,1v18.91c12.21.53,24.41,1.06,36.62,1.6Z"/>
        <path class="cls-1" d="M300.82,648.2v-20.64c0-.56.08-1.08.21-1.54-12.65-.21-25.29-.42-37.94-.63.08.37.12.77.12,1.19v19.98c12.53.55,25.07,1.09,37.6,1.64Z"/>
        <path class="cls-1" d="M352.66,650.46v-20.94c0-1.04.25-1.92.68-2.63-14.12-.23-28.24-.47-42.36-.7.11.42.17.88.17,1.38v21.09c13.84.6,27.67,1.21,41.51,1.81Z"/>
        <path class="cls-1" d="M401.56,629.52c0-.68.11-1.28.3-1.82-13.16-.22-26.32-.44-39.48-.66.38.69.6,1.51.6,2.48v21.39c8.89.39,17.77.77,26.66,1.16,3.16.14,6.32.28,9.48.41.81.04,1.63.07,2.44.11v-23.07Z"/>
        <path class="cls-1" d="M471.29,628.85c-19.88-.33-39.76-.66-59.64-.99.16.5.25,1.05.25,1.66v23.52c7.39.32,14.77.65,22.16.97-.07,46.16-.14,92.33-.22,138.49h34.7c-.13-45.66-.27-91.34-.4-137v-1.17c12.04.92,24.08,1.83,36.12,2.74,2.76.12,5.52.24,8.28.36.14-3.9.29-7.81.43-11.71v-16.18c-13.89-.23-27.79-.46-41.68-.69Z"/>
        <path class="cls-1" d="M131.62,640.83v-17.18c0-.15.01-.3.02-.44-8.97-.15-17.94-.3-26.91-.45,0,.13.02.25.02.38v16.52c8.96.39,17.91.78,26.87,1.17Z"/>
      </g>
      <g>
        <rect class="cls-5" x="27.85" y="661.89" width="921.32" height="140.05"/>
        <path class="cls-1" d="M152.29,792.67h-33.1l-53.44-92.93h-.76c1.06,16.41,1.6,28.12,1.6,35.12v57.81h-23.27v-122.84h32.85l53.35,92h.59c-.84-15.96-1.26-27.25-1.26-33.86v-58.14h23.44v122.84Z"/>
        <path class="cls-1" d="M233.17,794.35c-15.12,0-26.94-4.17-35.46-12.52-8.51-8.35-12.77-20.17-12.77-35.46s3.93-27.91,11.81-36.51c7.87-8.6,18.75-12.9,32.64-12.9s23.61,3.78,31,11.34,11.09,18.01,11.09,31.34v12.44h-60.58c.28,7.28,2.44,12.97,6.47,17.06,4.03,4.09,9.69,6.13,16.97,6.13,5.66,0,11.01-.59,16.05-1.76,5.04-1.18,10.31-3.05,15.8-5.63v19.83c-4.48,2.24-9.27,3.91-14.37,5-5.1,1.09-11.31,1.64-18.65,1.64ZM229.56,715.2c-5.43,0-9.69,1.72-12.77,5.17-3.08,3.45-4.85,8.33-5.29,14.66h35.96c-.11-6.33-1.76-11.22-4.96-14.66-3.19-3.44-7.51-5.17-12.94-5.17Z"/>
        <path class="cls-1" d="M321.02,744.69l-30.25-45.96h29.07l18.23,29.91,18.4-29.91h29.07l-30.58,45.96,32.01,47.98h-29.16l-19.75-32.18-19.83,32.18h-29.07l31.84-47.98Z"/>
        <path class="cls-1" d="M567.7,723.68h48.73v63.69c-7.9,2.58-15.33,4.38-22.31,5.42s-14.1,1.55-21.38,1.55c-18.54,0-32.7-5.45-42.47-16.34-9.78-10.89-14.66-26.54-14.66-46.93s5.67-35.29,17.01-46.38c11.34-11.09,27.07-16.64,47.18-16.64,12.6,0,24.76,2.52,36.47,7.56l-8.65,20.84c-8.96-4.48-18.29-6.72-27.98-6.72-11.26,0-20.28,3.78-27.06,11.34-6.78,7.56-10.17,17.73-10.17,30.5s2.73,23.51,8.19,30.54c5.46,7.03,13.4,10.54,23.82,10.54,5.43,0,10.95-.56,16.55-1.68v-25.63h-23.27v-21.68Z"/>
        <path class="cls-1" d="M695.64,794.35c-15.12,0-26.94-4.17-35.46-12.52-8.51-8.35-12.77-20.17-12.77-35.46s3.93-27.91,11.81-36.51c7.87-8.6,18.75-12.9,32.64-12.9s23.61,3.78,31,11.34,11.09,18.01,11.09,31.34v12.44h-60.58c.28,7.28,2.44,12.97,6.47,17.06,4.03,4.09,9.69,6.13,16.97,6.13,5.66,0,11.01-.59,16.05-1.76,5.04-1.18,10.31-3.05,15.8-5.63v19.83c-4.48,2.24-9.27,3.91-14.37,5-5.1,1.09-11.31,1.64-18.65,1.64ZM692.03,715.2c-5.43,0-9.69,1.72-12.77,5.17-3.08,3.45-4.85,8.33-5.29,14.66h35.96c-.11-6.33-1.76-11.22-4.96-14.66-3.19-3.44-7.51-5.17-12.94-5.17Z"/>
        <path class="cls-1" d="M850.96,792.67h-25.63v-54.87c0-6.78-1.21-11.86-3.61-15.25-2.41-3.39-6.25-5.08-11.51-5.08-7.17,0-12.35,2.39-15.54,7.18-3.19,4.79-4.79,12.73-4.79,23.82v44.2h-25.63v-93.94h19.58l3.44,12.01h1.43c2.86-4.54,6.79-7.97,11.81-10.29,5.01-2.32,10.71-3.49,17.1-3.49,10.92,0,19.21,2.96,24.87,8.86,5.66,5.91,8.49,14.44,8.49,25.58v61.25Z"/>
      </g>
    </g>
    <g>
      <ellipse class="cls-8" cx="462.73" cy="284.3" rx="279.88" ry="273.56"/>
      <path class="cls-3" d="M436.72,146.98c-.07-.48-.14-.96-.21-1.44"/>
      <path class="cls-2" d="M436.72,146.98c.93-.17,1.86-.34,2.79-.49"/>
      <circle class="cls-1" cx="458.3" cy="10.74" r="10.74"/>
      <circle class="cls-1" cx="579.61" cy="37.28" r="10.74"/>
      <circle class="cls-1" cx="666.79" cy="104.24" r="10.74"/>
      <circle class="cls-1" cx="732.5" cy="219.23" r="10.74"/>
      <circle class="cls-1" cx="732.5" cy="343.06" r="10.74"/>
      <circle class="cls-1" cx="683.22" cy="454.26" r="10.74"/>
      <circle class="cls-1" cx="585.93" cy="532.6" r="10.74"/>
      <circle class="cls-1" cx="348.37" cy="32.22" r="10.74"/>
      <circle class="cls-1" cx="256.13" cy="97.93" r="10.74"/>
      <circle class="cls-1" cx="195.48" cy="212.91" r="10.74"/>
      <circle class="cls-1" cx="191.69" cy="336.74" r="10.74"/>
      <circle class="cls-1" cx="239.71" cy="447.94" r="10.74"/>
      <circle class="cls-1" cx="330.68" cy="526.28" r="10.74"/>
      <line class="cls-6" x1="651.63" y1="211.65" x2="631.41" y2="274.83"/>
      <circle class="cls-4" cx="462.1" cy="286.2" r="142.15"/>
      <path class="cls-6" d="M391.97,381.6c20.26-30.6,40.52-61.19,60.77-91.79"/>
      <path class="cls-6" d="M276.36,344.81c58.46-18.67,116.92-37.34,175.39-56"/>
      <path class="cls-6" d="M451.74,282.81c-6.55-3.27-14.66-7.54-23.76-12.87,0,0-7.46-4.37-14.84-9.12-23.31-15.02-52.47-40.07-55.95-43.08"/>
      <path class="cls-6" d="M269.45,262.65c3.01.52,6.03,1.03,9.05,1.53,58.46,9.78,116.24,17.25,173.24,22.63"/>
      <path class="cls-6" d="M422.65,471.38c3.76-16.96,7.37-34.25,10.82-51.84,8.69-44.32,15.69-87.29,21.27-128.73"/>
      <path class="cls-6" d="M453.74,278.81c-29.49-32.4-61.06-65.24-94.84-98.23-12.71-12.41-25.39-24.5-38.01-36.27"/>
      <path class="cls-6" d="M456.74,276.81c-13.81-38.04-27.35-76.98-40.53-116.82-4.85-14.65-9.59-29.22-14.21-43.72"/>
      <path class="cls-6" d="M460.74,275.81c-1.06-43.98-.72-89.93,1.42-137.68.7-15.66,1.58-31.09,2.62-46.29"/>
      <path class="cls-6" d="M464.74,276.81c21.02-48.68,42.04-97.35,63.06-146.03"/>
      <path class="cls-6" d="M463.37,494.24c-.28-4.5-.55-9-.81-13.51-3.7-63.75-5.22-126.41-4.81-187.91"/>
      <path class="cls-6" d="M485.82,374.4c-8.03-27.2-16.06-54.39-24.08-81.59"/>
      <path class="cls-6" d="M600.55,418.14c-17.53-17.57-35.62-35.28-54.26-53.08-27.13-25.9-54.02-50.64-80.55-74.25"/>
      <path class="cls-6" d="M639.01,336.66c-8.03-2.68-16.14-5.32-24.32-7.92-50.18-15.94-99.26-29.11-146.95-39.93"/>
      <path class="cls-6" d="M629.52,275.52c-7.08-.09-14.22-.11-21.42-.06-48.88.32-95.41,3.73-139.36,9.35"/>
      <path class="cls-6" d="M615.44,171.59c-10.4,7.13-20.83,14.41-31.3,21.84-40.65,28.86-79.09,58.09-115.41,87.38"/>
      <path class="cls-6" d="M465.74,277.81c25.77-25.79,51.54-51.58,77.31-77.37"/>
      <path class="cls-6" d="M455.74,276.81c-2.94-28.46-5.87-56.92-8.81-85.38"/>
      <path class="cls-7" d="M569.13,339.09c-7.2-2.25-14.67-4.81-22.36-7.74,0,0-9.77-3.72-19.52-8.05-25.69-11.41-55.68-30.25-60.01-32.99"/>
      <line class="cls-6" x1="320.57" y1="144.68" x2="348.37" y2="32.22"/>
      <line class="cls-6" x1="683.22" y1="454.26" x2="639" y2="336.74"/>
      <line class="cls-6" x1="271.3" y1="346.85" x2="191.69" y2="336.74"/>
      <line class="cls-6" x1="614.99" y1="171.21" x2="688.28" y2="171.21"/>
      <line class="cls-6" x1="639" y1="336.74" x2="732.5" y2="343.06"/>
      <line class="cls-6" x1="422.92" y1="471.95" x2="458.3" y2="561.66"/>
      <line class="cls-6" x1="422.92" y1="471.95" x2="330.68" y2="526.28"/>
      <line class="cls-6" x1="271.3" y1="346.85" x2="239.71" y2="447.94"/>
      <line class="cls-6" x1="195.48" y1="212.91" x2="270.03" y2="262.19"/>
      <line class="cls-6" x1="266.24" y1="259.66" x2="320.57" y2="144.68"/>
      <line class="cls-6" x1="270.66" y1="346.22" x2="421.66" y2="473.21"/>
      <line class="cls-6" x1="266.24" y1="262.19" x2="271.3" y2="345.59"/>
      <line class="cls-6" x1="256.13" y1="97.93" x2="320.57" y2="144.68"/>
      <line class="cls-6" x1="458.3" y1="10.74" x2="320.57" y2="144.68"/>
      <line class="cls-6" x1="579.61" y1="37.28" x2="527.8" y2="129.52"/>
      <line class="cls-6" x1="527.8" y1="129.52" x2="666.79" y2="104.24"/>
      <line class="cls-6" x1="639" y1="336.74" x2="732.5" y2="219.23"/>
      <line class="cls-6" x1="585.93" y1="532.6" x2="601.09" y2="417.61"/>
      <line class="cls-6" x1="553.07" y1="478.26" x2="463.36" y2="494.69"/>
      <line class="cls-6" x1="464.62" y1="94.14" x2="520.22" y2="48.65"/>
      <line class="cls-6" x1="401.44" y1="115.62" x2="390.07" y2="47.38"/>
      <circle class="cls-1" cx="390.07" cy="48.65" r="11.06"/>
      <circle class="cls-1" cx="457.37" cy="559.94" r="10.74"/>
      <circle class="cls-1" cx="402.85" cy="116.39" r="11.06"/>
      <circle class="cls-1" cx="465.88" cy="93.98" r="11.06"/>
      <circle class="cls-1" cx="520.51" cy="47.75" r="11.06"/>
      <circle class="cls-1" cx="528.92" cy="127.6" r="11.06"/>
      <circle class="cls-1" cx="616.02" cy="171.07" r="11.06"/>
      <circle class="cls-1" cx="693.07" cy="171.07" r="11.06"/>
      <circle class="cls-1" cx="652.44" cy="208.89" r="11.06"/>
      <circle class="cls-1" cx="631.43" cy="274.73" r="11.06"/>
      <circle class="cls-1" cx="686.06" cy="277.53" r="11.06"/>
      <circle class="cls-1" cx="641.24" cy="339.17" r="11.06"/>
      <circle class="cls-1" cx="600.89" cy="420.97" r="11.06"/>
      <circle class="cls-1" cx="557.46" cy="477.01" r="11.06"/>
      <circle class="cls-1" cx="465.01" cy="493.82" r="11.06"/>
      <circle class="cls-1" cx="421.58" cy="472.8" r="11.06"/>
      <circle class="cls-1" cx="347.34" cy="409.77" r="11.06"/>
      <circle class="cls-1" cx="270.59" cy="347.45" r="11.06"/>
      <circle class="cls-1" cx="266.39" cy="260.6" r="11.06"/>
      <circle class="cls-1" cx="320.8" cy="144.51" r="11.06"/>
    </g>
  </g>
</svg>