<?xml version="1.0" encoding="UTF-8"?>
<svg id="Layer_2" xmlns="http://www.w3.org/2000/svg" viewBox="0 0 1886.45 407.46">
  <defs>
    <style>
      .cls-1 {
        fill: #fff;
      }

      .cls-2 {
        opacity: .5;
        stroke-dasharray: 10;
        stroke-linejoin: round;
      }

      .cls-2, .cls-3, .cls-4, .cls-5, .cls-6 {
        fill: none;
      }

      .cls-2, .cls-3, .cls-5, .cls-6 {
        stroke: #262626;
      }

      .cls-2, .cls-3, .cls-6 {
        stroke-width: 5px;
      }

      .cls-2, .cls-7, .cls-5, .cls-6 {
        stroke-linecap: round;
      }

      .cls-8, .cls-9, .cls-7 {
        fill: #262626;
      }

      .cls-3, .cls-9, .cls-7, .cls-5, .cls-6 {
        stroke-miterlimit: 10;
      }

      .cls-9, .cls-7 {
        stroke: #72858c;
        stroke-width: 3px;
      }

      .cls-5 {
        stroke-width: 6px;
      }
    </style>
  </defs>
  <g id="Layer_1-2" data-name="Layer_1">
    <g>
      <g>
        <path class="cls-8" d="M482.46,12.7c0-.99.15-1.87.42-2.67-7.36-.12-14.71-.24-22.07-.37v22.63c7.23.31,14.46.63,21.69.94-.02-.24-.04-.48-.04-.73V12.7Z"/>
        <path class="cls-8" d="M444.91,9.4c-6.61-.11-13.22-.22-19.84-.33.75,7.27,1.54,14.52,2.29,21.77,5.85.25,11.7.51,17.55.76V9.4Z"/>
        <path class="cls-8" d="M498.24,33.93c8.11.35,16.22.71,24.33,1.06V11.93c0-.43.04-.84.09-1.24-8.22-.14-16.43-.27-24.65-.41.22.73.34,1.53.34,2.42v19.81c0,.5-.05.97-.12,1.42Z"/>
        <path class="cls-8" d="M570.45,37.08V12.34c0-.29.02-.57.04-.85-10.69-.18-21.39-.36-32.08-.53.03.32.05.64.05.98v23.75c10.66.46,21.32.93,31.99,1.39Z"/>
        <path class="cls-8" d="M684.94,42.06V14.63c0-.43.04-.84.09-1.24-13.81-.23-27.62-.46-41.44-.69,0,.14.02.28.02.42v27.14c13.77.6,27.55,1.2,41.32,1.8Z"/>
        <path class="cls-8" d="M742.16,44.56v-28.42c0-.64.06-1.23.18-1.79-13.85-.23-27.7-.46-41.55-.69.03.32.05.64.05.98v28.13c13.77.6,27.55,1.2,41.32,1.8Z"/>
        <path class="cls-8" d="M814.44,47.71v-30.07c0-.76.1-1.45.26-2.1-18.93-.31-37.85-.63-56.78-.94.08.48.14.99.14,1.53v29.11c18.79.82,37.59,1.64,56.38,2.46Z"/>
        <path class="cls-8" d="M888.23,50.92v-31.78c0-.87.12-1.66.33-2.38-19.47-.32-38.94-.65-58.41-.97.12.57.19,1.18.19,1.84v30.76c19.3.84,38.59,1.68,57.89,2.52Z"/>
        <path class="cls-8" d="M968.04,54.4V22.16c0-1.6.39-2.95,1.04-4.05-21.74-.36-43.48-.72-65.22-1.08.17.65.26,1.35.26,2.12v32.47c21.3.93,42.61,1.86,63.91,2.79Z"/>
        <path class="cls-8" d="M1043.33,22.16c0-1.05.17-1.98.47-2.81-20.26-.34-40.52-.67-60.79-1.01.58,1.06.92,2.33.92,3.82v32.93c13.68.6,27.36,1.19,41.04,1.79,4.87.22,9.73.43,14.6.64,1.25.05,2.5.11,3.75.16V22.16Z"/>
        <path class="cls-8" d="M1150.68,21.13c-30.61-.51-61.22-1.02-91.83-1.53.24.77.38,1.62.38,2.56v36.22c11.37.5,22.75,1,34.12,1.49-.11,71.07-.22,142.15-.33,213.22h53.42c-.21-70.3-.41-140.63-.62-210.93v-1.8c18.54,1.42,37.08,2.81,55.61,4.21,4.25.19,8.51.37,12.75.56.22-6.01.45-12.02.67-18.03v-24.91c-21.38-.35-42.78-.72-64.17-1.07Z"/>
        <path class="cls-8" d="M627.72,39.57V13.13c0-.24.02-.46.03-.68-13.81-.23-27.62-.46-41.43-.69.01.19.03.38.03.58v25.43c13.79.6,27.58,1.2,41.37,1.8Z"/>
      </g>
      <g>
        <rect class="cls-4" x="467.95" y="72" width="1418.49" height="215.63"/>
        <path class="cls-8" d="M659.54,273.34h-50.97l-82.27-143.07h-1.16c1.64,25.27,2.46,43.29,2.46,54.07v89h-35.83V84.22h50.58l82.15,141.65h.91c-1.29-24.58-1.94-41.96-1.94-52.13v-89.52h36.09v189.13Z"/>
        <path class="cls-8" d="M784.06,275.93c-23.29,0-41.48-6.42-54.59-19.27-13.11-12.85-19.66-31.05-19.66-54.59s6.06-42.97,18.18-56.21c12.12-13.24,28.87-19.86,50.26-19.86s36.35,5.82,47.73,17.46,17.08,27.73,17.08,48.25v19.15h-93.27c.43,11.21,3.75,19.97,9.96,26.26,6.21,6.3,14.92,9.44,26.13,9.44,8.71,0,16.95-.91,24.71-2.72s15.87-4.7,24.32-8.67v30.53c-6.9,3.45-14.27,6.02-22.12,7.7-7.85,1.68-17.42,2.52-28.72,2.52ZM778.5,154.07c-8.37,0-14.92,2.65-19.66,7.96-4.74,5.3-7.46,12.83-8.15,22.57h55.37c-.17-9.74-2.72-17.27-7.63-22.57-4.92-5.3-11.56-7.96-19.92-7.96Z"/>
        <path class="cls-8" d="M919.33,199.48l-46.57-70.76h44.76l28.07,46.05,28.33-46.05h44.76l-47.09,70.76,49.29,73.87h-44.89l-30.4-49.55-30.53,49.55h-44.76l49.03-73.87Z"/>
        <path class="cls-8" d="M1299.13,167.14h75.03v98.06c-12.16,3.97-23.61,6.75-34.35,8.34-10.74,1.6-21.71,2.39-32.92,2.39-28.55,0-50.34-8.39-65.39-25.16-15.05-16.77-22.57-40.86-22.57-72.25s8.73-54.33,26.2-71.41c17.46-17.08,41.67-25.61,72.64-25.61,19.4,0,38.12,3.88,56.14,11.64l-13.32,32.08c-13.8-6.9-28.16-10.35-43.08-10.35-17.33,0-31.22,5.82-41.65,17.46-10.44,11.64-15.65,27.3-15.65,46.96s4.2,36.2,12.61,47.02c8.41,10.82,20.63,16.23,36.67,16.23,8.36,0,16.86-.86,25.48-2.59v-39.46h-35.83v-33.38Z"/>
        <path class="cls-8" d="M1496.1,275.93c-23.29,0-41.48-6.42-54.59-19.27-13.11-12.85-19.66-31.05-19.66-54.59s6.06-42.97,18.18-56.21c12.12-13.24,28.87-19.86,50.26-19.86s36.35,5.82,47.73,17.46,17.08,27.73,17.08,48.25v19.15h-93.27c.43,11.21,3.75,19.97,9.96,26.26,6.21,6.3,14.92,9.44,26.13,9.44,8.71,0,16.95-.91,24.71-2.72s15.87-4.7,24.32-8.67v30.53c-6.9,3.45-14.27,6.02-22.12,7.7-7.85,1.68-17.42,2.52-28.72,2.52ZM1490.54,154.07c-8.37,0-14.92,2.65-19.66,7.96-4.74,5.3-7.46,12.83-8.15,22.57h55.37c-.17-9.74-2.72-17.27-7.63-22.57-4.92-5.3-11.56-7.96-19.92-7.96Z"/>
        <path class="cls-8" d="M1735.24,273.34h-39.46v-84.47c0-10.43-1.86-18.26-5.56-23.48-3.71-5.22-9.62-7.83-17.72-7.83-11.04,0-19.02,3.69-23.93,11.06-4.92,7.37-7.37,19.6-7.37,36.67v68.04h-39.46v-144.63h30.14l5.3,18.5h2.2c4.4-6.99,10.46-12.27,18.18-15.85,7.72-3.58,16.49-5.37,26.33-5.37,16.82,0,29.58,4.55,38.29,13.65,8.71,9.1,13.07,22.23,13.07,39.39v94.31Z"/>
      </g>
      <g>
        <path class="cls-8" d="M542.93,380.69h-8.99l-37.04-59.17h-.37c.49,6.94.74,13.31.74,19.1v40.07h-7.28v-70.5h8.9l36.95,58.93h.37c-.06-.87-.2-3.66-.42-8.37-.22-4.71-.29-8.08-.23-10.1v-40.46h7.37v70.5Z"/>
        <path class="cls-8" d="M588.05,381.66c-7.51,0-13.44-2.38-17.78-7.14-4.34-4.76-6.51-11.36-6.51-19.82s2.02-15.29,6.05-20.3c4.03-5.02,9.45-7.52,16.25-7.52,6.37,0,11.41,2.18,15.11,6.53,3.71,4.36,5.56,10.1,5.56,17.24v5.06h-35c.15,6.21,1.66,10.92,4.52,14.13,2.86,3.22,6.88,4.82,12.08,4.82,5.47,0,10.88-1.19,16.23-3.57v7.14c-2.72,1.22-5.29,2.1-7.72,2.63-2.43.53-5.35.8-8.79.8ZM585.97,333.58c-4.08,0-7.33,1.38-9.76,4.15-2.43,2.77-3.86,6.59-4.29,11.48h26.57c0-5.05-1.08-8.91-3.25-11.6-2.16-2.68-5.25-4.03-9.27-4.03Z"/>
        <path class="cls-8" d="M638.27,353.64l-17.66-25.8h8.76l13.4,20.25,13.35-20.25h8.67l-17.66,25.8,18.59,27.05h-8.72l-14.23-21.41-14.37,21.41h-8.72l18.59-27.05Z"/>
        <path class="cls-8" d="M698.36,375.05c1.36,0,2.67-.1,3.94-.31,1.27-.21,2.27-.43,3.01-.65v6.12c-.83.42-2.06.76-3.69,1.04-1.62.27-3.08.41-4.38.41-9.83,0-14.74-5.38-14.74-16.16v-31.44h-7.28v-3.86l7.28-3.33,3.25-11.28h4.45v12.25h14.74v6.22h-14.74v31.1c0,3.18.73,5.63,2.18,7.33,1.45,1.7,3.45,2.56,5.98,2.56Z"/>
        <path class="cls-8" d="M783.45,343.75h23.04v34.29c-3.59,1.19-7.23,2.09-10.94,2.7-3.71.61-8.01.92-12.89.92-10.26,0-18.25-3.17-23.97-9.52-5.72-6.35-8.58-15.25-8.58-26.69,0-7.33,1.41-13.75,4.24-19.27,2.83-5.51,6.9-9.72,12.22-12.63,5.32-2.91,11.54-4.36,18.68-4.36s13.97,1.38,20.21,4.15l-3.06,7.23c-6.12-2.7-12.01-4.05-17.67-4.05-8.25,0-14.7,2.56-19.33,7.67-4.64,5.11-6.95,12.2-6.95,21.27,0,9.52,2.23,16.73,6.7,21.65,4.47,4.92,11.03,7.38,19.68,7.38,4.7,0,9.29-.56,13.77-1.69v-21.7h-15.16v-7.33Z"/>
        <path class="cls-8" d="M849.25,381.66c-7.51,0-13.44-2.38-17.78-7.14-4.34-4.76-6.51-11.36-6.51-19.82s2.02-15.29,6.05-20.3c4.03-5.02,9.45-7.52,16.25-7.52,6.37,0,11.41,2.18,15.11,6.53,3.71,4.36,5.56,10.1,5.56,17.24v5.06h-35c.15,6.21,1.66,10.92,4.52,14.13,2.86,3.22,6.88,4.82,12.08,4.82,5.47,0,10.88-1.19,16.23-3.57v7.14c-2.72,1.22-5.29,2.1-7.72,2.63-2.43.53-5.35.8-8.79.8ZM847.16,333.58c-4.08,0-7.33,1.38-9.76,4.15-2.43,2.77-3.86,6.59-4.29,11.48h26.57c0-5.05-1.08-8.91-3.25-11.6-2.16-2.68-5.25-4.03-9.27-4.03Z"/>
        <path class="cls-8" d="M922,380.69v-34.19c0-4.31-.94-7.52-2.83-9.65-1.89-2.12-4.84-3.18-8.86-3.18-5.32,0-9.21,1.5-11.68,4.49-2.47,2.99-3.71,7.93-3.71,14.8v27.73h-7.7v-52.85h6.26l1.25,7.23h.37c1.58-2.6,3.79-4.62,6.63-6.05,2.84-1.43,6.01-2.15,9.5-2.15,6.12,0,10.73,1.54,13.82,4.61,3.09,3.07,4.64,7.98,4.64,14.73v34.48h-7.7Z"/>
        <path class="cls-8" d="M973.14,381.66c-7.51,0-13.44-2.38-17.78-7.14-4.34-4.76-6.51-11.36-6.51-19.82s2.02-15.29,6.05-20.3c4.03-5.02,9.45-7.52,16.25-7.52,6.37,0,11.41,2.18,15.11,6.53,3.71,4.36,5.56,10.1,5.56,17.24v5.06h-35c.15,6.21,1.66,10.92,4.52,14.13,2.86,3.22,6.88,4.82,12.08,4.82,5.47,0,10.88-1.19,16.23-3.57v7.14c-2.72,1.22-5.29,2.1-7.72,2.63-2.43.53-5.35.8-8.79.8ZM971.06,333.58c-4.08,0-7.33,1.38-9.76,4.15-2.43,2.77-3.86,6.59-4.29,11.48h26.57c0-5.05-1.08-8.91-3.25-11.6-2.16-2.68-5.25-4.03-9.27-4.03Z"/>
        <path class="cls-8" d="M1034.3,326.88c2.26,0,4.28.19,6.07.58l-1.07,7.43c-2.1-.48-3.96-.72-5.56-.72-4.11,0-7.63,1.74-10.55,5.21s-4.38,7.8-4.38,12.97v28.36h-7.7v-52.85h6.35l.88,9.79h.37c1.89-3.44,4.16-6.09,6.82-7.96,2.66-1.86,5.58-2.8,8.76-2.8Z"/>
        <path class="cls-8" d="M1087.3,380.69l-1.53-7.52h-.37c-2.53,3.31-5.06,5.55-7.58,6.73-2.52,1.17-5.66,1.76-9.44,1.76-5.04,0-8.99-1.35-11.85-4.05-2.86-2.7-4.29-6.54-4.29-11.53,0-10.67,8.21-16.27,24.62-16.78l8.62-.29v-3.28c0-4.15-.86-7.21-2.57-9.19-1.72-1.98-4.46-2.97-8.23-2.97-4.23,0-9.03,1.35-14.37,4.05l-2.36-6.12c2.5-1.41,5.25-2.52,8.23-3.33,2.98-.8,5.97-1.21,8.97-1.21,6.06,0,10.55,1.4,13.47,4.2,2.92,2.8,4.38,7.28,4.38,13.45v36.07h-5.7ZM1069.92,375.05c4.79,0,8.55-1.37,11.29-4.1,2.74-2.73,4.1-6.56,4.1-11.48v-4.77l-7.7.34c-6.12.23-10.53,1.21-13.24,2.97-2.71,1.75-4.06,4.48-4.06,8.17,0,2.89.84,5.1,2.53,6.61s4.04,2.27,7.07,2.27Z"/>
        <path class="cls-8" d="M1131.45,375.05c1.36,0,2.67-.1,3.94-.31,1.27-.21,2.27-.43,3.01-.65v6.12c-.83.42-2.06.76-3.69,1.04-1.62.27-3.08.41-4.38.41-9.83,0-14.74-5.38-14.74-16.16v-31.44h-7.28v-3.86l7.28-3.33,3.25-11.28h4.45v12.25h14.74v6.22h-14.74v31.1c0,3.18.73,5.63,2.18,7.33,1.45,1.7,3.45,2.56,5.98,2.56Z"/>
        <path class="cls-8" d="M1154.08,313.52c0-1.83.43-3.17,1.3-4.03.87-.85,1.95-1.28,3.25-1.28s2.3.43,3.2,1.3c.9.87,1.34,2.2,1.34,4s-.45,3.14-1.34,4.03c-.9.88-1.96,1.33-3.2,1.33-1.3,0-2.38-.44-3.25-1.33-.87-.88-1.3-2.23-1.3-4.03ZM1162.42,380.69h-7.7v-52.85h7.7v52.85Z"/>
        <path class="cls-8" d="M1228.78,354.22c0,8.62-2.09,15.34-6.26,20.18-4.17,4.84-9.94,7.26-17.29,7.26-4.54,0-8.58-1.11-12.1-3.33-3.52-2.22-6.24-5.4-8.16-9.55-1.92-4.15-2.87-9-2.87-14.56,0-8.62,2.07-15.33,6.21-20.13,4.14-4.81,9.89-7.21,17.25-7.21s12.76,2.46,16.95,7.38c4.19,4.92,6.28,11.57,6.28,19.96ZM1190.06,354.22c0,6.75,1.3,11.9,3.89,15.43,2.6,3.54,6.41,5.3,11.45,5.3s8.86-1.76,11.48-5.28c2.61-3.52,3.92-8.67,3.92-15.46s-1.31-11.82-3.92-15.31c-2.61-3.49-6.47-5.23-11.57-5.23s-8.84,1.72-11.41,5.16c-2.57,3.44-3.85,8.57-3.85,15.38Z"/>
        <path class="cls-8" d="M1283.21,380.69v-34.19c0-4.31-.94-7.52-2.83-9.65-1.89-2.12-4.84-3.18-8.86-3.18-5.32,0-9.21,1.5-11.68,4.49-2.47,2.99-3.71,7.93-3.71,14.8v27.73h-7.7v-52.85h6.26l1.25,7.23h.37c1.58-2.6,3.79-4.62,6.63-6.05,2.84-1.43,6.01-2.15,9.5-2.15,6.12,0,10.73,1.54,13.82,4.61,3.09,3.07,4.64,7.98,4.64,14.73v34.48h-7.7Z"/>
        <path class="cls-8" d="M1365.75,380.69h-7.88v-63.22h-21.47v-7.28h50.81v7.28h-21.47v63.22Z"/>
        <path class="cls-8" d="M1425.61,326.88c2.26,0,4.28.19,6.07.58l-1.07,7.43c-2.1-.48-3.96-.72-5.56-.72-4.11,0-7.63,1.74-10.55,5.21s-4.38,7.8-4.38,12.97v28.36h-7.7v-52.85h6.35l.88,9.79h.37c1.89-3.44,4.16-6.09,6.82-7.96,2.66-1.86,5.58-2.8,8.76-2.8Z"/>
        <path class="cls-8" d="M1446.71,313.52c0-1.83.43-3.17,1.3-4.03.87-.85,1.95-1.28,3.25-1.28s2.3.43,3.2,1.3c.9.87,1.34,2.2,1.34,4s-.45,3.14-1.34,4.03c-.9.88-1.96,1.33-3.2,1.33-1.3,0-2.38-.44-3.25-1.33-.87-.88-1.3-2.23-1.3-4.03ZM1455.06,380.69h-7.7v-52.85h7.7v52.85Z"/>
        <path class="cls-8" d="M1519.14,327.84v5.06l-9.41,1.16c.87,1.13,1.64,2.6,2.32,4.41.68,1.82,1.02,3.87,1.02,6.15,0,5.18-1.7,9.31-5.1,12.39-3.4,3.09-8.07,4.63-14,4.63-1.51,0-2.94-.13-4.27-.39-3.28,1.8-4.91,4.07-4.91,6.8,0,1.45.57,2.52,1.72,3.21,1.14.69,3.11,1.04,5.89,1.04h8.99c5.5,0,9.73,1.21,12.68,3.62,2.95,2.41,4.43,5.92,4.43,10.51,0,5.85-2.26,10.31-6.77,13.38-4.51,3.07-11.1,4.61-19.75,4.61-6.65,0-11.77-1.29-15.37-3.86-3.6-2.57-5.4-6.21-5.4-10.9,0-3.22.99-6,2.97-8.34,1.98-2.35,4.76-3.94,8.35-4.77-1.3-.61-2.39-1.56-3.27-2.85-.88-1.29-1.32-2.78-1.32-4.48,0-1.93.49-3.62,1.48-5.06.99-1.45,2.55-2.85,4.68-4.2-2.63-1.12-4.77-3.04-6.42-5.74-1.65-2.7-2.48-5.79-2.48-9.26,0-5.79,1.67-10.25,5.01-13.38s8.07-4.7,14.19-4.7c2.66,0,5.05.32,7.19.96h17.57ZM1478.62,389.57c0,2.86,1.16,5.03,3.48,6.51,2.32,1.48,5.64,2.22,9.97,2.22,6.46,0,11.24-1.01,14.35-3.01,3.11-2.01,4.66-4.73,4.66-8.17,0-2.86-.85-4.85-2.55-5.96-1.7-1.11-4.9-1.66-9.6-1.66h-9.23c-3.49,0-6.21.87-8.16,2.6-1.95,1.74-2.92,4.23-2.92,7.48ZM1482.79,344.77c0,3.7,1,6.49,3.01,8.39,2.01,1.9,4.81,2.85,8.39,2.85,7.51,0,11.27-3.79,11.27-11.38s-3.8-11.91-11.41-11.91c-3.62,0-6.4,1.01-8.35,3.04s-2.92,5.03-2.92,9.02Z"/>
        <path class="cls-8" d="M1577.33,327.84v5.06l-9.41,1.16c.87,1.13,1.64,2.6,2.32,4.41.68,1.82,1.02,3.87,1.02,6.15,0,5.18-1.7,9.31-5.1,12.39-3.4,3.09-8.07,4.63-14,4.63-1.51,0-2.94-.13-4.27-.39-3.28,1.8-4.91,4.07-4.91,6.8,0,1.45.57,2.52,1.72,3.21,1.14.69,3.11,1.04,5.89,1.04h8.99c5.5,0,9.73,1.21,12.68,3.62,2.95,2.41,4.43,5.92,4.43,10.51,0,5.85-2.26,10.31-6.77,13.38-4.51,3.07-11.1,4.61-19.75,4.61-6.65,0-11.77-1.29-15.37-3.86-3.6-2.57-5.4-6.21-5.4-10.9,0-3.22.99-6,2.97-8.34,1.98-2.35,4.76-3.94,8.35-4.77-1.3-.61-2.39-1.56-3.27-2.85-.88-1.29-1.32-2.78-1.32-4.48,0-1.93.49-3.62,1.48-5.06.99-1.45,2.55-2.85,4.68-4.2-2.63-1.12-4.77-3.04-6.42-5.74-1.65-2.7-2.48-5.79-2.48-9.26,0-5.79,1.67-10.25,5.01-13.38s8.07-4.7,14.19-4.7c2.66,0,5.05.32,7.19.96h17.57ZM1536.81,389.57c0,2.86,1.16,5.03,3.48,6.51,2.32,1.48,5.64,2.22,9.97,2.22,6.46,0,11.24-1.01,14.35-3.01,3.11-2.01,4.66-4.73,4.66-8.17,0-2.86-.85-4.85-2.55-5.96-1.7-1.11-4.9-1.66-9.6-1.66h-9.23c-3.49,0-6.21.87-8.16,2.6-1.95,1.74-2.92,4.23-2.92,7.48ZM1540.98,344.77c0,3.7,1,6.49,3.01,8.39,2.01,1.9,4.81,2.85,8.39,2.85,7.51,0,11.27-3.79,11.27-11.38s-3.8-11.91-11.41-11.91c-3.62,0-6.4,1.01-8.35,3.04s-2.92,5.03-2.92,9.02Z"/>
        <path class="cls-8" d="M1615.4,381.66c-7.51,0-13.44-2.38-17.78-7.14-4.34-4.76-6.51-11.36-6.51-19.82s2.02-15.29,6.05-20.3c4.03-5.02,9.45-7.52,16.25-7.52,6.37,0,11.41,2.18,15.11,6.53,3.71,4.36,5.56,10.1,5.56,17.24v5.06h-35c.15,6.21,1.66,10.92,4.52,14.13,2.86,3.22,6.88,4.82,12.08,4.82,5.47,0,10.88-1.19,16.23-3.57v7.14c-2.72,1.22-5.29,2.1-7.72,2.63-2.43.53-5.35.8-8.79.8ZM1613.32,333.58c-4.08,0-7.33,1.38-9.76,4.15-2.43,2.77-3.86,6.59-4.29,11.48h26.57c0-5.05-1.08-8.91-3.25-11.6-2.16-2.68-5.25-4.03-9.27-4.03Z"/>
        <path class="cls-8" d="M1676.56,326.88c2.26,0,4.28.19,6.07.58l-1.07,7.43c-2.1-.48-3.96-.72-5.56-.72-4.11,0-7.63,1.74-10.55,5.21s-4.38,7.8-4.38,12.97v28.36h-7.7v-52.85h6.35l.88,9.79h.37c1.89-3.44,4.16-6.09,6.82-7.96,2.66-1.86,5.58-2.8,8.76-2.8Z"/>
        <path class="cls-8" d="M1731.09,366.27c0,4.92-1.76,8.71-5.29,11.38-3.52,2.67-8.47,4-14.84,4-6.74,0-11.99-1.11-15.76-3.33v-7.43c2.44,1.29,5.06,2.3,7.86,3.04,2.8.74,5.49,1.11,8.09,1.11,4.02,0,7.11-.67,9.27-2,2.16-1.33,3.25-3.37,3.25-6.1,0-2.06-.86-3.82-2.57-5.28-1.72-1.46-5.06-3.19-10.04-5.18-4.73-1.83-8.09-3.43-10.08-4.8-1.99-1.37-3.48-2.92-4.45-4.65-.97-1.74-1.46-3.81-1.46-6.22,0-4.31,1.68-7.71,5.05-10.2,3.37-2.49,7.99-3.74,13.86-3.74,5.47,0,10.82,1.16,16.04,3.47l-2.74,6.51c-5.1-2.19-9.72-3.28-13.86-3.28-3.65,0-6.4.6-8.25,1.78-1.85,1.19-2.78,2.83-2.78,4.92,0,1.42.35,2.62,1.04,3.62s1.82,1.95,3.36,2.85c1.55.9,4.51,2.2,8.9,3.91,6.03,2.28,10.1,4.58,12.22,6.9,2.12,2.31,3.18,5.22,3.18,8.73Z"/>
      </g>
    </g>
    <g>
      <ellipse class="cls-2" cx="202.3" cy="202.96" rx="199.8" ry="195.29"/>
      <path class="cls-7" d="M183.74,104.92c-.05-.34-.1-.69-.15-1.03"/>
      <path class="cls-9" d="M183.74,104.92c.66-.12,1.33-.24,1.99-.35"/>
      <circle class="cls-8" cx="199.14" cy="7.67" r="7.67"/>
      <circle class="cls-8" cx="285.74" cy="26.61" r="7.67"/>
      <circle class="cls-8" cx="347.98" cy="74.42" r="7.67"/>
      <circle class="cls-8" cx="394.88" cy="156.5" r="7.67"/>
      <circle class="cls-8" cx="394.88" cy="244.9" r="7.67"/>
      <circle class="cls-8" cx="359.7" cy="324.28" r="7.67"/>
      <circle class="cls-8" cx="290.25" cy="380.2" r="7.67"/>
      <circle class="cls-8" cx="120.67" cy="23" r="7.67"/>
      <circle class="cls-8" cx="54.82" cy="69.91" r="7.67"/>
      <circle class="cls-8" cx="11.52" cy="151.99" r="7.67"/>
      <circle class="cls-8" cx="8.81" cy="240.39" r="7.67"/>
      <circle class="cls-8" cx="43.09" cy="319.77" r="7.67"/>
      <circle class="cls-8" cx="108.04" cy="375.69" r="7.67"/>
      <g>
        <line class="cls-6" x1="337.15" y1="151.09" x2="322.72" y2="196.19"/>
        <g>
          <circle class="cls-3" cx="201.85" cy="204.31" r="101.48"/>
          <line class="cls-6" x1="151.79" y1="272.41" x2="195.35" y2="206.34"/>
          <path class="cls-6" d="M69.25,246.15c44.96-13.8,86.79-27.43,125.17-40.47"/>
          <path class="cls-6" d="M195.03,202.21c-8.92-4.46-18.37-9.74-28.13-16.02-15.73-10.13-28.98-20.74-39.94-30.75"/>
          <path class="cls-6" d="M64.33,187.5c2.14.37,4.3.73,6.46,1.09,44.1,7.38,85.62,12.72,124.03,16.56"/>
          <path class="cls-6" d="M173.69,336.5c2.68-11.87,5.28-24.22,7.72-37.01,6.54-34.18,10.95-65.77,13.94-94.06"/>
          <path class="cls-6" d="M197,198.8c-21.29-22.61-44.21-45.99-68.82-69.89-9.11-8.85-18.16-17.48-27.13-25.89"/>
          <path class="cls-6" d="M197.49,198.77c-9.53-27.73-19.01-55.91-28.4-84.56-3.43-10.44-6.81-20.85-10.15-31.21"/>
          <path class="cls-6" d="M200.58,198.44c-.6-30.94-.31-64.32,1.32-99.83.51-11.21,1.14-22.23,1.87-33.04"/>
          <line class="cls-6" x1="203.33" y1="199.3" x2="248.75" y2="93.36"/>
          <path class="cls-6" d="M202.76,352.82c-.2-3.2-.4-6.41-.58-9.65-2.86-49.5-3.53-95.08-2.93-135.95"/>
          <line class="cls-6" x1="218.79" y1="267.27" x2="199.34" y2="207.19"/>
          <path class="cls-6" d="M300.69,298.5c-12.44-12.45-25.35-25.09-38.74-37.89-19.82-18.95-39.24-36.86-58.13-53.75"/>
          <path class="cls-6" d="M328.14,240.33c-5.7-1.91-11.48-3.79-17.36-5.65-38.95-12.33-75.13-21.45-107.53-28.26"/>
          <path class="cls-6" d="M321.37,196.68c-5.02-.06-10.12-.08-15.29-.04-37.9.27-71.81,3.32-100.79,7.37"/>
          <path class="cls-6" d="M311.32,122.49c-7.38,5.07-14.83,10.26-22.34,15.59-30.25,21.46-57.96,42.51-83.12,62.63"/>
          <line class="cls-6" x1="203.67" y1="199.05" x2="259.64" y2="143.08"/>
          <line class="cls-6" x1="197.29" y1="199.02" x2="191.02" y2="136.66"/>
          <path class="cls-5" d="M278.25,242.07c-9.51-2.98-19.69-6.7-30.32-11.35-17.14-7.5-31.9-15.88-44.32-24.02"/>
          <line class="cls-6" x1="100.82" y1="103.28" x2="120.67" y2="23"/>
          <line class="cls-6" x1="359.7" y1="324.28" x2="328.13" y2="240.39"/>
          <line class="cls-6" x1="65.64" y1="247.61" x2="8.81" y2="240.39"/>
          <line class="cls-6" x1="310.99" y1="122.22" x2="363.31" y2="122.22"/>
          <line class="cls-6" x1="328.13" y1="240.39" x2="394.88" y2="244.9"/>
          <line class="cls-6" x1="173.88" y1="336.91" x2="199.14" y2="400.95"/>
          <line class="cls-6" x1="173.88" y1="336.91" x2="108.04" y2="375.69"/>
          <line class="cls-6" x1="65.64" y1="247.61" x2="43.09" y2="319.77"/>
          <line class="cls-6" x1="11.52" y1="151.99" x2="64.74" y2="187.17"/>
          <line class="cls-6" x1="62.03" y1="185.37" x2="100.82" y2="103.28"/>
          <line class="cls-6" x1="65.19" y1="247.15" x2="172.98" y2="337.81"/>
          <line class="cls-6" x1="62.03" y1="187.17" x2="65.64" y2="246.7"/>
          <line class="cls-6" x1="54.82" y1="69.91" x2="100.82" y2="103.28"/>
          <line class="cls-6" x1="199.14" y1="7.67" x2="100.82" y2="103.28"/>
          <line class="cls-6" x1="285.74" y1="26.61" x2="248.75" y2="92.46"/>
          <line class="cls-6" x1="248.75" y1="92.46" x2="347.98" y2="74.42"/>
          <line class="cls-6" x1="328.13" y1="240.39" x2="394.88" y2="156.5"/>
          <line class="cls-6" x1="290.25" y1="380.2" x2="301.07" y2="298.12"/>
          <line class="cls-6" x1="266.79" y1="341.42" x2="202.75" y2="353.14"/>
          <line class="cls-6" x1="203.65" y1="67.2" x2="243.34" y2="34.73"/>
          <line class="cls-6" x1="158.55" y1="82.54" x2="150.43" y2="33.83"/>
        </g>
      </g>
      <circle class="cls-8" cx="150.43" cy="34.73" r="7.89"/>
      <circle class="cls-8" cx="198.48" cy="399.72" r="7.67"/>
      <circle class="cls-1" cx="200.19" cy="203.12" r="6"/>
      <circle class="cls-8" cx="159.55" cy="83.09" r="7.89"/>
      <circle class="cls-8" cx="204.55" cy="67.09" r="7.89"/>
      <circle class="cls-8" cx="243.55" cy="34.09" r="7.89"/>
      <circle class="cls-8" cx="249.55" cy="91.09" r="7.89"/>
      <circle class="cls-8" cx="311.73" cy="122.12" r="7.89"/>
      <circle class="cls-8" cx="366.73" cy="122.12" r="7.89"/>
      <circle class="cls-8" cx="337.73" cy="149.12" r="7.89"/>
      <circle class="cls-8" cx="322.73" cy="196.12" r="7.89"/>
      <circle class="cls-8" cx="361.73" cy="198.12" r="7.89"/>
      <circle class="cls-8" cx="329.73" cy="242.12" r="7.89"/>
      <circle class="cls-8" cx="300.93" cy="300.52" r="7.89"/>
      <circle class="cls-8" cx="269.93" cy="340.52" r="7.89"/>
      <circle class="cls-8" cx="203.93" cy="352.52" r="7.89"/>
      <circle class="cls-8" cx="172.93" cy="337.52" r="7.89"/>
      <circle class="cls-8" cx="119.93" cy="292.52" r="7.89"/>
      <circle class="cls-8" cx="65.14" cy="248.04" r="7.89"/>
      <circle class="cls-8" cx="62.14" cy="186.04" r="7.89"/>
      <circle class="cls-8" cx="100.98" cy="103.16" r="7.89"/>
    </g>
  </g>
</svg>